<?xml version="1.0" encoding="utf-8"?>
<!-- Generator: Adobe Illustrator 23.0.3, SVG Export Plug-In . SVG Version: 6.00 Build 0)  -->
<svg version="1.1" id="Layer_1" xmlns="http://www.w3.org/2000/svg" xmlns:xlink="http://www.w3.org/1999/xlink" x="0px" y="0px"
	 viewBox="0 0 1920 900" style="enable-background:new 0 0 1920 900;" xml:space="preserve">
<style type="text/css">
	.st0{fill:#FFFFFF;}
</style>
<g id="Layer_2_1_">
</g>
<g id="Layer_2_copy">
	<rect x="213.6" y="49.9" class="st0" width="2.7" height="18.7"/>
	<rect x="228.8" y="49.9" class="st0" width="2.7" height="18.7"/>
	<rect x="244" y="49.9" class="st0" width="2.7" height="18.7"/>
	<rect x="259.2" y="49.9" class="st0" width="2.7" height="18.7"/>
	<rect x="213.6" y="831.5" class="st0" width="2.7" height="18.7"/>
	<rect x="228.8" y="831.5" class="st0" width="2.7" height="18.7"/>
	<rect x="244" y="831.5" class="st0" width="2.7" height="18.7"/>
	<rect x="259.2" y="831.5" class="st0" width="2.7" height="18.7"/>
	<rect x="213.6" y="357.7" class="st0" width="2.7" height="18.7"/>
	<rect x="228.8" y="357.7" class="st0" width="2.7" height="18.7"/>
	<rect x="244" y="357.7" class="st0" width="2.7" height="18.7"/>
	<rect x="259.2" y="357.7" class="st0" width="2.7" height="18.7"/>
	<rect x="213.6" y="524.3" class="st0" width="2.7" height="18.7"/>
	<rect x="228.8" y="524.3" class="st0" width="2.7" height="18.7"/>
	<rect x="244" y="524.3" class="st0" width="2.7" height="18.7"/>
	<rect x="259.2" y="524.3" class="st0" width="2.7" height="18.7"/>
	<rect x="289.6" y="49.9" class="st0" width="2.7" height="18.7"/>
	<rect x="304.8" y="49.9" class="st0" width="2.7" height="18.7"/>
	<rect x="319.9" y="49.9" class="st0" width="2.7" height="18.7"/>
	<rect x="335.1" y="49.9" class="st0" width="2.7" height="18.7"/>
	<rect x="289.6" y="831.5" class="st0" width="2.7" height="18.7"/>
	<rect x="304.8" y="831.5" class="st0" width="2.7" height="18.7"/>
	<rect x="319.9" y="831.5" class="st0" width="2.7" height="18.7"/>
	<rect x="335.1" y="831.5" class="st0" width="2.7" height="18.7"/>
	<rect x="289.6" y="357.7" class="st0" width="2.7" height="18.7"/>
	<rect x="304.8" y="357.7" class="st0" width="2.7" height="18.7"/>
	<rect x="319.9" y="357.7" class="st0" width="2.7" height="18.7"/>
	<rect x="335.1" y="357.7" class="st0" width="2.7" height="18.7"/>
	<rect x="289.6" y="524.3" class="st0" width="2.7" height="18.7"/>
	<rect x="304.8" y="524.3" class="st0" width="2.7" height="18.7"/>
	<rect x="319.9" y="524.3" class="st0" width="2.7" height="18.7"/>
	<rect x="335.1" y="524.3" class="st0" width="2.7" height="18.7"/>
	<rect x="365.5" y="49.9" class="st0" width="2.7" height="18.7"/>
	<rect x="380.7" y="49.9" class="st0" width="2.7" height="18.7"/>
	<rect x="395.9" y="49.9" class="st0" width="2.7" height="18.7"/>
	<rect x="411.1" y="49.9" class="st0" width="2.7" height="18.7"/>
	<rect x="365.5" y="831.5" class="st0" width="2.7" height="18.7"/>
	<rect x="380.7" y="831.5" class="st0" width="2.7" height="18.7"/>
	<rect x="395.9" y="831.5" class="st0" width="2.7" height="18.7"/>
	<rect x="411.1" y="831.5" class="st0" width="2.7" height="18.7"/>
	<rect x="365.5" y="357.7" class="st0" width="2.7" height="18.7"/>
	<rect x="380.7" y="357.7" class="st0" width="2.7" height="18.7"/>
	<rect x="395.9" y="357.7" class="st0" width="2.7" height="18.7"/>
	<rect x="411.1" y="357.7" class="st0" width="2.7" height="18.7"/>
	<rect x="365.5" y="524.3" class="st0" width="2.7" height="18.7"/>
	<rect x="380.7" y="524.3" class="st0" width="2.7" height="18.7"/>
	<rect x="395.9" y="524.3" class="st0" width="2.7" height="18.7"/>
	<rect x="411.1" y="524.3" class="st0" width="2.7" height="18.7"/>
	<rect x="441.5" y="49.9" class="st0" width="2.7" height="18.7"/>
	<rect x="456.7" y="49.9" class="st0" width="2.7" height="18.7"/>
	<rect x="471.9" y="49.9" class="st0" width="2.7" height="18.7"/>
	<rect x="487.1" y="49.9" class="st0" width="2.7" height="18.7"/>
	<rect x="441.5" y="831.5" class="st0" width="2.7" height="18.7"/>
	<rect x="456.7" y="831.5" class="st0" width="2.7" height="18.7"/>
	<rect x="471.9" y="831.5" class="st0" width="2.7" height="18.7"/>
	<rect x="487.1" y="831.5" class="st0" width="2.7" height="18.7"/>
	<rect x="441.5" y="357.7" class="st0" width="2.7" height="18.7"/>
	<rect x="456.7" y="357.7" class="st0" width="2.7" height="18.7"/>
	<rect x="471.9" y="357.7" class="st0" width="2.7" height="18.7"/>
	<rect x="487.1" y="357.7" class="st0" width="2.7" height="18.7"/>
	<rect x="441.5" y="524.3" class="st0" width="2.7" height="18.7"/>
	<rect x="456.7" y="524.3" class="st0" width="2.7" height="18.7"/>
	<rect x="471.9" y="524.3" class="st0" width="2.7" height="18.7"/>
	<rect x="487.1" y="524.3" class="st0" width="2.7" height="18.7"/>
	<rect x="517.4" y="49.9" class="st0" width="2.7" height="18.7"/>
	<rect x="532.6" y="49.9" class="st0" width="2.7" height="18.7"/>
	<rect x="547.8" y="49.9" class="st0" width="2.7" height="18.7"/>
	<rect x="563" y="49.9" class="st0" width="2.7" height="18.7"/>
	<rect x="517.4" y="831.5" class="st0" width="2.7" height="18.7"/>
	<rect x="532.6" y="831.5" class="st0" width="2.7" height="18.7"/>
	<rect x="547.8" y="831.5" class="st0" width="2.7" height="18.7"/>
	<rect x="563" y="831.5" class="st0" width="2.7" height="18.7"/>
	<rect x="517.4" y="357.7" class="st0" width="2.7" height="18.7"/>
	<rect x="532.6" y="357.7" class="st0" width="2.7" height="18.7"/>
	<rect x="547.8" y="357.7" class="st0" width="2.7" height="18.7"/>
	<rect x="563" y="357.7" class="st0" width="2.7" height="18.7"/>
	<rect x="517.4" y="524.3" class="st0" width="2.7" height="18.7"/>
	<rect x="532.6" y="524.3" class="st0" width="2.7" height="18.7"/>
	<rect x="547.8" y="524.3" class="st0" width="2.7" height="18.7"/>
	<rect x="563" y="524.3" class="st0" width="2.7" height="18.7"/>
	<rect x="593.4" y="49.9" class="st0" width="2.7" height="18.7"/>
	<rect x="608.6" y="49.9" class="st0" width="2.7" height="18.7"/>
	<rect x="623.8" y="49.9" class="st0" width="2.7" height="18.7"/>
	<rect x="639" y="49.9" class="st0" width="2.7" height="18.7"/>
	<rect x="593.4" y="831.5" class="st0" width="2.7" height="18.7"/>
	<rect x="608.6" y="831.5" class="st0" width="2.7" height="18.7"/>
	<rect x="623.8" y="831.5" class="st0" width="2.7" height="18.7"/>
	<rect x="639" y="831.5" class="st0" width="2.7" height="18.7"/>
	<rect x="593.4" y="357.7" class="st0" width="2.7" height="18.7"/>
	<rect x="608.6" y="357.7" class="st0" width="2.7" height="18.7"/>
	<rect x="623.8" y="357.7" class="st0" width="2.7" height="18.7"/>
	<rect x="639" y="357.7" class="st0" width="2.7" height="18.7"/>
	<rect x="593.4" y="524.3" class="st0" width="2.7" height="18.7"/>
	<rect x="608.6" y="524.3" class="st0" width="2.7" height="18.7"/>
	<rect x="623.8" y="524.3" class="st0" width="2.7" height="18.7"/>
	<rect x="639" y="524.3" class="st0" width="2.7" height="18.7"/>
	<rect x="669.4" y="49.9" class="st0" width="2.7" height="18.7"/>
	<rect x="684.5" y="49.9" class="st0" width="2.7" height="18.7"/>
	<rect x="699.7" y="49.9" class="st0" width="2.7" height="18.7"/>
	<rect x="714.9" y="49.9" class="st0" width="2.7" height="18.7"/>
	<rect x="669.4" y="831.5" class="st0" width="2.7" height="18.7"/>
	<rect x="684.5" y="831.5" class="st0" width="2.7" height="18.7"/>
	<rect x="699.7" y="831.5" class="st0" width="2.7" height="18.7"/>
	<rect x="714.9" y="831.5" class="st0" width="2.7" height="18.7"/>
	<rect x="669.4" y="357.7" class="st0" width="2.7" height="18.7"/>
	<rect x="684.5" y="357.7" class="st0" width="2.7" height="18.7"/>
	<rect x="699.7" y="357.7" class="st0" width="2.7" height="18.7"/>
	<rect x="714.9" y="357.7" class="st0" width="2.7" height="18.7"/>
	<rect x="669.4" y="524.3" class="st0" width="2.7" height="18.7"/>
	<rect x="684.5" y="524.3" class="st0" width="2.7" height="18.7"/>
	<rect x="699.7" y="524.3" class="st0" width="2.7" height="18.7"/>
	<rect x="714.9" y="524.3" class="st0" width="2.7" height="18.7"/>
	<rect x="745.3" y="49.9" class="st0" width="2.7" height="18.7"/>
	<rect x="760.5" y="49.9" class="st0" width="2.7" height="18.7"/>
	<rect x="775.7" y="49.9" class="st0" width="2.7" height="18.7"/>
	<rect x="790.9" y="49.9" class="st0" width="2.7" height="18.7"/>
	<rect x="745.3" y="831.5" class="st0" width="2.7" height="18.7"/>
	<rect x="760.5" y="831.5" class="st0" width="2.7" height="18.7"/>
	<rect x="775.7" y="831.5" class="st0" width="2.7" height="18.7"/>
	<rect x="790.9" y="831.5" class="st0" width="2.7" height="18.7"/>
	<rect x="745.3" y="357.7" class="st0" width="2.7" height="18.7"/>
	<rect x="760.5" y="357.7" class="st0" width="2.7" height="18.7"/>
	<rect x="775.7" y="357.7" class="st0" width="2.7" height="18.7"/>
	<rect x="790.9" y="357.7" class="st0" width="2.7" height="18.7"/>
	<rect x="745.3" y="524.3" class="st0" width="2.7" height="18.7"/>
	<rect x="760.5" y="524.3" class="st0" width="2.7" height="18.7"/>
	<rect x="775.7" y="524.3" class="st0" width="2.7" height="18.7"/>
	<rect x="790.9" y="524.3" class="st0" width="2.7" height="18.7"/>
	<rect x="821.3" y="49.9" class="st0" width="2.7" height="18.7"/>
	<rect x="836.5" y="49.9" class="st0" width="2.7" height="18.7"/>
	<rect x="851.7" y="49.9" class="st0" width="2.7" height="18.7"/>
	<rect x="866.8" y="49.9" class="st0" width="2.7" height="18.7"/>
	<rect x="821.3" y="831.5" class="st0" width="2.7" height="18.7"/>
	<rect x="836.5" y="831.5" class="st0" width="2.7" height="18.7"/>
	<rect x="851.7" y="831.5" class="st0" width="2.7" height="18.7"/>
	<rect x="866.8" y="831.5" class="st0" width="2.7" height="18.7"/>
	<rect x="821.3" y="357.7" class="st0" width="2.7" height="18.7"/>
	<rect x="836.5" y="357.7" class="st0" width="2.7" height="18.7"/>
	<rect x="851.7" y="357.7" class="st0" width="2.7" height="18.7"/>
	<rect x="866.8" y="357.7" class="st0" width="2.7" height="18.7"/>
	<rect x="821.3" y="524.3" class="st0" width="2.7" height="18.7"/>
	<rect x="836.5" y="524.3" class="st0" width="2.7" height="18.7"/>
	<rect x="851.7" y="524.3" class="st0" width="2.7" height="18.7"/>
	<rect x="866.8" y="524.3" class="st0" width="2.7" height="18.7"/>
	<rect x="897.2" y="49.9" class="st0" width="2.7" height="18.7"/>
	<rect x="912.4" y="49.9" class="st0" width="2.7" height="18.7"/>
	<rect x="927.6" y="49.9" class="st0" width="2.7" height="18.7"/>
	<rect x="942.8" y="49.9" class="st0" width="2.7" height="18.7"/>
	<rect x="897.2" y="831.5" class="st0" width="2.7" height="18.7"/>
	<rect x="912.4" y="831.5" class="st0" width="2.7" height="18.7"/>
	<rect x="927.6" y="831.5" class="st0" width="2.7" height="18.7"/>
	<rect x="942.8" y="831.5" class="st0" width="2.7" height="18.7"/>
	<rect x="897.2" y="357.7" class="st0" width="2.7" height="18.7"/>
	<rect x="912.4" y="357.7" class="st0" width="2.7" height="18.7"/>
	<rect x="927.6" y="357.7" class="st0" width="2.7" height="18.7"/>
	<rect x="942.8" y="357.7" class="st0" width="2.7" height="18.7"/>
	<rect x="897.2" y="524.3" class="st0" width="2.7" height="18.7"/>
	<rect x="912.4" y="524.3" class="st0" width="2.7" height="18.7"/>
	<rect x="927.6" y="524.3" class="st0" width="2.7" height="18.7"/>
	<rect x="942.8" y="524.3" class="st0" width="2.7" height="18.7"/>
	<rect x="973.2" y="49.9" class="st0" width="2.7" height="18.7"/>
	<rect x="988.4" y="49.9" class="st0" width="2.7" height="18.7"/>
	<rect x="1003.6" y="49.9" class="st0" width="2.7" height="18.7"/>
	<rect x="1018.8" y="49.9" class="st0" width="2.7" height="18.7"/>
	<rect x="973.2" y="831.5" class="st0" width="2.7" height="18.7"/>
	<rect x="988.4" y="831.5" class="st0" width="2.7" height="18.7"/>
	<rect x="1003.6" y="831.5" class="st0" width="2.7" height="18.7"/>
	<rect x="1018.8" y="831.5" class="st0" width="2.7" height="18.7"/>
	<rect x="973.2" y="357.7" class="st0" width="2.7" height="18.7"/>
	<rect x="988.4" y="357.7" class="st0" width="2.7" height="18.7"/>
	<rect x="1003.6" y="357.7" class="st0" width="2.7" height="18.7"/>
	<rect x="1018.8" y="357.7" class="st0" width="2.7" height="18.7"/>
	<rect x="973.2" y="524.3" class="st0" width="2.7" height="18.7"/>
	<rect x="988.4" y="524.3" class="st0" width="2.7" height="18.7"/>
	<rect x="1003.6" y="524.3" class="st0" width="2.7" height="18.7"/>
	<rect x="1018.8" y="524.3" class="st0" width="2.7" height="18.7"/>
	<rect x="1049.1" y="49.9" class="st0" width="2.7" height="18.7"/>
	<rect x="1064.3" y="49.9" class="st0" width="2.7" height="18.7"/>
	<rect x="1079.5" y="49.9" class="st0" width="2.7" height="18.7"/>
	<rect x="1094.7" y="49.9" class="st0" width="2.7" height="18.7"/>
	<rect x="1049.1" y="831.5" class="st0" width="2.7" height="18.7"/>
	<rect x="1064.3" y="831.5" class="st0" width="2.7" height="18.7"/>
	<rect x="1079.5" y="831.5" class="st0" width="2.7" height="18.7"/>
	<rect x="1094.7" y="831.5" class="st0" width="2.7" height="18.7"/>
	<rect x="1049.1" y="357.7" class="st0" width="2.7" height="18.7"/>
	<rect x="1064.3" y="357.7" class="st0" width="2.7" height="18.7"/>
	<rect x="1079.5" y="357.7" class="st0" width="2.7" height="18.7"/>
	<rect x="1094.7" y="357.7" class="st0" width="2.7" height="18.7"/>
	<rect x="1049.1" y="524.3" class="st0" width="2.7" height="18.7"/>
	<rect x="1064.3" y="524.3" class="st0" width="2.7" height="18.7"/>
	<rect x="1079.5" y="524.3" class="st0" width="2.7" height="18.7"/>
	<rect x="1094.7" y="524.3" class="st0" width="2.7" height="18.7"/>
	<rect x="1125.1" y="49.9" class="st0" width="2.7" height="18.7"/>
	<rect x="1140.3" y="49.9" class="st0" width="2.7" height="18.7"/>
	<rect x="1155.5" y="49.9" class="st0" width="2.7" height="18.7"/>
	<rect x="1170.7" y="49.9" class="st0" width="2.7" height="18.7"/>
	<rect x="1125.1" y="831.5" class="st0" width="2.7" height="18.7"/>
	<rect x="1140.3" y="831.5" class="st0" width="2.7" height="18.7"/>
	<rect x="1155.5" y="831.5" class="st0" width="2.7" height="18.7"/>
	<rect x="1170.7" y="831.5" class="st0" width="2.7" height="18.7"/>
	<rect x="1125.1" y="357.7" class="st0" width="2.7" height="18.7"/>
	<rect x="1140.3" y="357.7" class="st0" width="2.7" height="18.7"/>
	<rect x="1155.5" y="357.7" class="st0" width="2.7" height="18.7"/>
	<rect x="1170.7" y="357.7" class="st0" width="2.7" height="18.7"/>
	<rect x="1125.1" y="524.3" class="st0" width="2.7" height="18.7"/>
	<rect x="1140.3" y="524.3" class="st0" width="2.7" height="18.7"/>
	<rect x="1155.5" y="524.3" class="st0" width="2.7" height="18.7"/>
	<rect x="1170.7" y="524.3" class="st0" width="2.7" height="18.7"/>
	<rect x="1201.1" y="49.9" class="st0" width="2.7" height="18.7"/>
	<rect x="1216.3" y="49.9" class="st0" width="2.7" height="18.7"/>
	<rect x="1231.4" y="49.9" class="st0" width="2.7" height="18.7"/>
	<rect x="1246.6" y="49.9" class="st0" width="2.7" height="18.7"/>
	<rect x="1201.1" y="831.5" class="st0" width="2.7" height="18.7"/>
	<rect x="1216.3" y="831.5" class="st0" width="2.7" height="18.7"/>
	<rect x="1231.4" y="831.5" class="st0" width="2.7" height="18.7"/>
	<rect x="1246.6" y="831.5" class="st0" width="2.7" height="18.7"/>
	<rect x="1201.1" y="357.7" class="st0" width="2.7" height="18.7"/>
	<rect x="1216.3" y="357.7" class="st0" width="2.7" height="18.7"/>
	<rect x="1231.4" y="357.7" class="st0" width="2.7" height="18.7"/>
	<rect x="1246.6" y="357.7" class="st0" width="2.7" height="18.7"/>
	<rect x="1201.1" y="524.3" class="st0" width="2.7" height="18.7"/>
	<rect x="1216.3" y="524.3" class="st0" width="2.7" height="18.7"/>
	<rect x="1231.4" y="524.3" class="st0" width="2.7" height="18.7"/>
	<rect x="1246.6" y="524.3" class="st0" width="2.7" height="18.7"/>
	<rect x="1277" y="49.9" class="st0" width="2.7" height="18.7"/>
	<rect x="1292.2" y="49.9" class="st0" width="2.7" height="18.7"/>
	<rect x="1307.4" y="49.9" class="st0" width="2.7" height="18.7"/>
	<rect x="1322.6" y="49.9" class="st0" width="2.7" height="18.7"/>
	<rect x="1277" y="831.5" class="st0" width="2.7" height="18.7"/>
	<rect x="1292.2" y="831.5" class="st0" width="2.7" height="18.7"/>
	<rect x="1307.4" y="831.5" class="st0" width="2.7" height="18.7"/>
	<rect x="1322.6" y="831.5" class="st0" width="2.7" height="18.7"/>
	<rect x="1277" y="357.7" class="st0" width="2.7" height="18.7"/>
	<rect x="1292.2" y="357.7" class="st0" width="2.7" height="18.7"/>
	<rect x="1307.4" y="357.7" class="st0" width="2.7" height="18.7"/>
	<rect x="1322.6" y="357.7" class="st0" width="2.7" height="18.7"/>
	<rect x="1277" y="524.3" class="st0" width="2.7" height="18.7"/>
	<rect x="1292.2" y="524.3" class="st0" width="2.7" height="18.7"/>
	<rect x="1307.4" y="524.3" class="st0" width="2.7" height="18.7"/>
	<rect x="1322.6" y="524.3" class="st0" width="2.7" height="18.7"/>
	<rect x="1353" y="49.9" class="st0" width="2.7" height="18.7"/>
	<rect x="1368.2" y="49.9" class="st0" width="2.7" height="18.7"/>
	<rect x="1383.4" y="49.9" class="st0" width="2.7" height="18.7"/>
	<rect x="1398.6" y="49.9" class="st0" width="2.7" height="18.7"/>
	<rect x="1353" y="831.5" class="st0" width="2.7" height="18.7"/>
	<rect x="1368.2" y="831.5" class="st0" width="2.7" height="18.7"/>
	<rect x="1383.4" y="831.5" class="st0" width="2.7" height="18.7"/>
	<rect x="1398.6" y="831.5" class="st0" width="2.7" height="18.7"/>
	<rect x="1353" y="357.7" class="st0" width="2.7" height="18.7"/>
	<rect x="1368.2" y="357.7" class="st0" width="2.7" height="18.7"/>
	<rect x="1383.4" y="357.7" class="st0" width="2.7" height="18.7"/>
	<rect x="1398.6" y="357.7" class="st0" width="2.7" height="18.7"/>
	<rect x="1353" y="524.3" class="st0" width="2.7" height="18.7"/>
	<rect x="1368.2" y="524.3" class="st0" width="2.7" height="18.7"/>
	<rect x="1383.4" y="524.3" class="st0" width="2.7" height="18.7"/>
	<rect x="1398.6" y="524.3" class="st0" width="2.7" height="18.7"/>
	<rect x="1428.9" y="49.9" class="st0" width="2.7" height="18.7"/>
	<rect x="1444.1" y="49.9" class="st0" width="2.7" height="18.7"/>
	<rect x="1459.3" y="49.9" class="st0" width="2.7" height="18.7"/>
	<rect x="1474.5" y="49.9" class="st0" width="2.7" height="18.7"/>
	<rect x="1428.9" y="831.5" class="st0" width="2.7" height="18.7"/>
	<rect x="1444.1" y="831.5" class="st0" width="2.7" height="18.7"/>
	<rect x="1459.3" y="831.5" class="st0" width="2.7" height="18.7"/>
	<rect x="1474.5" y="831.5" class="st0" width="2.7" height="18.7"/>
	<rect x="1428.9" y="357.7" class="st0" width="2.7" height="18.7"/>
	<rect x="1444.1" y="357.7" class="st0" width="2.7" height="18.7"/>
	<rect x="1459.3" y="357.7" class="st0" width="2.7" height="18.7"/>
	<rect x="1474.5" y="357.7" class="st0" width="2.7" height="18.7"/>
	<rect x="1428.9" y="524.3" class="st0" width="2.7" height="18.7"/>
	<rect x="1444.1" y="524.3" class="st0" width="2.7" height="18.7"/>
	<rect x="1459.3" y="524.3" class="st0" width="2.7" height="18.7"/>
	<rect x="1474.5" y="524.3" class="st0" width="2.7" height="18.7"/>
	<rect x="1504.9" y="49.9" class="st0" width="2.7" height="18.7"/>
	<rect x="1520.1" y="49.9" class="st0" width="2.7" height="18.7"/>
	<rect x="1535.3" y="49.9" class="st0" width="2.7" height="18.7"/>
	<rect x="1550.5" y="49.9" class="st0" width="2.7" height="18.7"/>
	<rect x="1504.9" y="831.5" class="st0" width="2.7" height="18.7"/>
	<rect x="1520.1" y="831.5" class="st0" width="2.7" height="18.7"/>
	<rect x="1535.3" y="831.5" class="st0" width="2.7" height="18.7"/>
	<rect x="1550.5" y="831.5" class="st0" width="2.7" height="18.7"/>
	<rect x="1504.9" y="357.7" class="st0" width="2.7" height="18.7"/>
	<rect x="1520.1" y="357.7" class="st0" width="2.7" height="18.7"/>
	<rect x="1535.3" y="357.7" class="st0" width="2.7" height="18.7"/>
	<rect x="1550.5" y="357.7" class="st0" width="2.7" height="18.7"/>
	<rect x="1504.9" y="524.3" class="st0" width="2.7" height="18.7"/>
	<rect x="1520.1" y="524.3" class="st0" width="2.7" height="18.7"/>
	<rect x="1535.3" y="524.3" class="st0" width="2.7" height="18.7"/>
	<rect x="1550.5" y="524.3" class="st0" width="2.7" height="18.7"/>
	<rect x="1580.9" y="49.9" class="st0" width="2.7" height="18.7"/>
	<rect x="1596.1" y="49.9" class="st0" width="2.7" height="18.7"/>
	<rect x="1611.2" y="49.9" class="st0" width="2.7" height="18.7"/>
	<rect x="1626.4" y="49.9" class="st0" width="2.7" height="18.7"/>
	<rect x="1580.9" y="831.5" class="st0" width="2.7" height="18.7"/>
	<rect x="1596.1" y="831.5" class="st0" width="2.7" height="18.7"/>
	<rect x="1611.2" y="831.5" class="st0" width="2.7" height="18.7"/>
	<rect x="1626.4" y="831.5" class="st0" width="2.7" height="18.7"/>
	<rect x="1580.9" y="357.7" class="st0" width="2.7" height="18.7"/>
	<rect x="1596.1" y="357.7" class="st0" width="2.7" height="18.7"/>
	<rect x="1611.2" y="357.7" class="st0" width="2.7" height="18.7"/>
	<rect x="1626.4" y="357.7" class="st0" width="2.7" height="18.7"/>
	<rect x="1580.9" y="524.3" class="st0" width="2.7" height="18.7"/>
	<rect x="1596.1" y="524.3" class="st0" width="2.7" height="18.7"/>
	<rect x="1611.2" y="524.3" class="st0" width="2.7" height="18.7"/>
	<rect x="1626.4" y="524.3" class="st0" width="2.7" height="18.7"/>
	<rect x="1656.8" y="49.9" class="st0" width="2.7" height="18.7"/>
	<rect x="1672" y="49.9" class="st0" width="2.7" height="18.7"/>
	<rect x="1687.2" y="49.9" class="st0" width="2.7" height="18.7"/>
	<rect x="1702.4" y="49.9" class="st0" width="2.7" height="18.7"/>
	<rect x="1656.8" y="831.5" class="st0" width="2.7" height="18.7"/>
	<rect x="1672" y="831.5" class="st0" width="2.7" height="18.7"/>
	<rect x="1687.2" y="831.5" class="st0" width="2.7" height="18.7"/>
	<rect x="1702.4" y="831.5" class="st0" width="2.7" height="18.7"/>
	<rect x="1656.8" y="357.7" class="st0" width="2.7" height="18.7"/>
	<rect x="1672" y="357.7" class="st0" width="2.7" height="18.7"/>
	<rect x="1687.2" y="357.7" class="st0" width="2.7" height="18.7"/>
	<rect x="1702.4" y="357.7" class="st0" width="2.7" height="18.7"/>
	<rect x="1656.8" y="524.3" class="st0" width="2.7" height="18.7"/>
	<rect x="1672" y="524.3" class="st0" width="2.7" height="18.7"/>
	<rect x="1687.2" y="524.3" class="st0" width="2.7" height="18.7"/>
	<rect x="1702.4" y="524.3" class="st0" width="2.7" height="18.7"/>
	<path class="st0" d="M22.5,9.9v880.2h1875V9.9H22.5z M1724.9,41.9h140.6v816.2h-140.6V41.9z M1716.9,858.1h-72V41.9h72V858.1z
		 M353.7,41.9h72v816.2h-72V41.9z M349.7,858.1h-72V41.9h72V858.1z M429.6,41.9h72v816.2h-72V41.9z M505.6,41.9h72v816.2h-72V41.9z
		 M581.5,41.9h72v816.2h-72V41.9z M657.5,41.9h72v816.2h-72V41.9z M733.5,41.9h72v816.2h-72V41.9z M809.4,41.9h72v816.2h-72V41.9z
		 M885.4,41.9h72v816.2h-72V41.9z M961.3,41.9h72v816.2h-72V41.9z M1037.3,41.9h72v816.2h-72V41.9z M1113.2,41.9h72v816.2h-72V41.9z
		 M1189.2,41.9h72v816.2h-72V41.9z M1265.2,41.9h72v816.2h-72V41.9z M1341.1,41.9h72v816.2h-72V41.9z M1417.1,41.9h72v816.2h-72
		V41.9z M1493,41.9h72v816.2h-72V41.9z M1569,41.9h72v816.2h-72V41.9z M193.8,858.1H54.5V41.9h139.3V858.1z M201.7,41.9h72v816.2
		h-72V41.9z"/>
	<rect x="228.8" y="429" class="st0" width="2.7" height="42.6"/>
	<rect x="1687.2" y="429" class="st0" width="2.7" height="42.6"/>
	<rect x="269" y="373.7" class="st0" width="13.3" height="2.7"/>
	<rect x="269" y="524.3" class="st0" width="13.3" height="2.7"/>
	<rect x="345" y="373.7" class="st0" width="13.3" height="2.7"/>
	<rect x="345" y="524.3" class="st0" width="13.3" height="2.7"/>
	<rect x="421" y="373.7" class="st0" width="13.3" height="2.7"/>
	<rect x="421" y="524.3" class="st0" width="13.3" height="2.7"/>
	<rect x="496.9" y="373.7" class="st0" width="13.3" height="2.7"/>
	<rect x="496.9" y="524.3" class="st0" width="13.3" height="2.7"/>
	<rect x="572.9" y="373.7" class="st0" width="13.3" height="2.7"/>
	<rect x="572.9" y="524.3" class="st0" width="13.3" height="2.7"/>
	<rect x="648.8" y="373.7" class="st0" width="13.3" height="2.7"/>
	<rect x="648.8" y="524.3" class="st0" width="13.3" height="2.7"/>
	<rect x="724.8" y="373.7" class="st0" width="13.3" height="2.7"/>
	<rect x="724.8" y="524.3" class="st0" width="13.3" height="2.7"/>
	<rect x="800.8" y="373.7" class="st0" width="13.3" height="2.7"/>
	<rect x="800.8" y="524.3" class="st0" width="13.3" height="2.7"/>
	<rect x="876.7" y="373.7" class="st0" width="13.3" height="2.7"/>
	<rect x="876.7" y="524.3" class="st0" width="13.3" height="2.7"/>
	<rect x="952.7" y="373.7" class="st0" width="13.3" height="2.7"/>
	<rect x="952.7" y="524.3" class="st0" width="13.3" height="2.7"/>
	<rect x="1028.6" y="373.7" class="st0" width="13.3" height="2.7"/>
	<rect x="1028.6" y="524.3" class="st0" width="13.3" height="2.7"/>
	<rect x="1104.6" y="373.7" class="st0" width="13.3" height="2.7"/>
	<rect x="1104.6" y="524.3" class="st0" width="13.3" height="2.7"/>
	<rect x="1180.5" y="373.7" class="st0" width="13.3" height="2.7"/>
	<rect x="1180.5" y="524.3" class="st0" width="13.3" height="2.7"/>
	<rect x="1256.5" y="373.7" class="st0" width="13.3" height="2.7"/>
	<rect x="1256.5" y="524.3" class="st0" width="13.3" height="2.7"/>
	<rect x="1332.5" y="373.7" class="st0" width="13.3" height="2.7"/>
	<rect x="1332.5" y="524.3" class="st0" width="13.3" height="2.7"/>
	<rect x="1408.4" y="373.7" class="st0" width="13.3" height="2.7"/>
	<rect x="1408.4" y="524.3" class="st0" width="13.3" height="2.7"/>
	<rect x="1484.4" y="373.7" class="st0" width="13.3" height="2.7"/>
	<rect x="1484.4" y="524.3" class="st0" width="13.3" height="2.7"/>
	<rect x="1560.3" y="373.7" class="st0" width="13.3" height="2.7"/>
	<rect x="1560.3" y="524.3" class="st0" width="13.3" height="2.7"/>
	
		<rect x="722.1" y="449" transform="matrix(0.7071 -0.7071 0.7071 0.7071 -104.1961 649.1082)" class="st0" width="18.7" height="2.7"/>
	
		<rect x="730.1" y="441" transform="matrix(0.7071 -0.7071 0.7071 0.7071 -104.1961 649.1082)" class="st0" width="2.7" height="18.7"/>
	
		<rect x="1177.9" y="449" transform="matrix(0.7071 -0.7071 0.7071 0.7071 29.287 971.3688)" class="st0" width="18.7" height="2.7"/>
	
		<rect x="1185.9" y="441" transform="matrix(0.7071 -0.7071 0.7071 0.7071 29.287 971.3688)" class="st0" width="2.7" height="18.7"/>
	<g>
		<g>
			<path class="st0" d="M334.7,707.6l7.9,1.6v2.3h-25.3v-2.3l7.7-1.6v-34.6h-7.7v-2.7c2.8-0.5,5.3-1.3,7.6-2.6
				c2.3-1.2,4.6-2.9,6.9-5.1l2.9,0.5L334.7,707.6L334.7,707.6z"/>
		</g>
		<g>
			<path class="st0" d="M386,665.9c2.6,2.2,4.7,5.2,6.2,9.1c1.5,3.8,2.3,8,2.3,12.6c0,4.5-0.7,8.7-2.3,12.5
				c-1.5,3.7-3.5,6.7-6.2,8.9c-2.6,2.1-5.5,3.2-8.7,3.2s-6-1.1-8.6-3.2c-2.6-2.1-4.7-5.1-6.1-8.9c-1.5-3.7-2.3-7.9-2.3-12.5
				c0-4.6,0.7-8.8,2.3-12.6c1.5-3.8,3.5-6.9,6.1-9.1c2.6-2.2,5.5-3.3,8.6-3.3C380.5,662.6,383.4,663.7,386,665.9z M374.2,668.1
				c-0.8,1.2-1.4,3.3-1.7,6.4c-0.3,3.1-0.5,7.4-0.5,13c0,5.7,0.2,9.9,0.5,12.9c0.3,2.9,0.9,5,1.7,6.2c0.8,1.1,1.9,1.7,3.3,1.7
				c1.4,0,2.5-0.6,3.3-1.7s1.4-3.2,1.7-6.2c0.3-3,0.5-7.3,0.5-12.9c0-5.6-0.2-9.9-0.5-12.9c-0.4-3-0.9-5.1-1.7-6.4
				c-0.8-1.2-1.9-1.9-3.3-1.9C376.1,666.3,374.9,666.9,374.2,668.1z"/>
		</g>
		<g>
			<path class="st0" d="M538,665.9c2.6,2.2,4.7,5.2,6.2,9.1c1.5,3.8,2.3,8,2.3,12.6c0,4.5-0.7,8.7-2.3,12.5
				c-1.5,3.7-3.5,6.7-6.2,8.9c-2.6,2.1-5.5,3.2-8.7,3.2c-3.1,0-6-1.1-8.6-3.2c-2.6-2.1-4.7-5.1-6.1-8.9c-1.5-3.7-2.3-7.9-2.3-12.5
				c0-4.6,0.7-8.8,2.3-12.6c1.5-3.8,3.5-6.9,6.1-9.1c2.6-2.2,5.5-3.3,8.6-3.3C532.4,662.6,535.4,663.7,538,665.9z M526.1,668.1
				c-0.8,1.2-1.4,3.3-1.7,6.4c-0.3,3.1-0.5,7.4-0.5,13c0,5.7,0.2,9.9,0.5,12.9c0.3,2.9,0.9,5,1.7,6.2c0.8,1.1,1.9,1.7,3.3,1.7
				c1.4,0,2.5-0.6,3.3-1.7s1.4-3.2,1.7-6.2s0.5-7.3,0.5-12.9c0-5.6-0.2-9.9-0.5-12.9c-0.4-3-0.9-5.1-1.7-6.4
				c-0.8-1.2-1.9-1.9-3.3-1.9C528,666.3,526.8,666.9,526.1,668.1z"/>
		</g>
		<g>
			<path class="st0" d="M689.9,665.9c2.6,2.2,4.7,5.2,6.2,9.1c1.5,3.8,2.3,8,2.3,12.6c0,4.5-0.7,8.7-2.3,12.5
				c-1.5,3.7-3.5,6.7-6.2,8.9c-2.6,2.1-5.5,3.2-8.7,3.2c-3.1,0-6-1.1-8.6-3.2c-2.6-2.1-4.7-5.1-6.1-8.9c-1.5-3.7-2.3-7.9-2.3-12.5
				c0-4.6,0.7-8.8,2.3-12.6c1.5-3.8,3.5-6.9,6.1-9.1c2.6-2.2,5.5-3.3,8.6-3.3C684.3,662.6,687.3,663.7,689.9,665.9z M678,668.1
				c-0.8,1.2-1.4,3.3-1.7,6.4c-0.3,3.1-0.5,7.4-0.5,13c0,5.7,0.2,9.9,0.5,12.9c0.3,2.9,0.9,5,1.7,6.2c0.8,1.1,1.9,1.7,3.3,1.7
				s2.5-0.6,3.3-1.7c0.8-1.1,1.4-3.2,1.7-6.2c0.3-3,0.5-7.3,0.5-12.9c0-5.6-0.2-9.9-0.5-12.9c-0.4-3-0.9-5.1-1.7-6.4
				c-0.8-1.2-1.9-1.9-3.3-1.9C679.9,666.3,678.8,666.9,678,668.1z"/>
		</g>
		<g>
			<path class="st0" d="M841.8,665.9c2.6,2.2,4.7,5.2,6.2,9.1c1.5,3.8,2.3,8,2.3,12.6c0,4.5-0.7,8.7-2.3,12.5s-3.5,6.7-6.2,8.9
				c-2.6,2.1-5.5,3.2-8.7,3.2s-6-1.1-8.6-3.2c-2.6-2.1-4.7-5.1-6.1-8.9c-1.5-3.7-2.3-7.9-2.3-12.5c0-4.6,0.7-8.8,2.3-12.6
				c1.5-3.8,3.5-6.9,6.1-9.1c2.6-2.2,5.5-3.3,8.6-3.3C836.3,662.6,839.2,663.7,841.8,665.9z M829.9,668.1c-0.8,1.2-1.4,3.3-1.7,6.4
				c-0.3,3.1-0.5,7.4-0.5,13c0,5.7,0.2,9.9,0.5,12.9c0.3,2.9,0.9,5,1.7,6.2c0.8,1.1,1.9,1.7,3.3,1.7s2.5-0.6,3.3-1.7
				c0.8-1.1,1.4-3.2,1.7-6.2c0.3-3,0.5-7.3,0.5-12.9c0-5.6-0.2-9.9-0.5-12.9c-0.4-3-0.9-5.1-1.7-6.4c-0.8-1.2-1.9-1.9-3.3-1.9
				C831.8,666.3,830.7,666.9,829.9,668.1z"/>
		</g>
		<g>
			<path class="st0" d="M993.7,665.9c2.6,2.2,4.7,5.2,6.2,9.1c1.5,3.8,2.3,8,2.3,12.6c0,4.5-0.7,8.7-2.3,12.5s-3.5,6.7-6.2,8.9
				c-2.6,2.1-5.5,3.2-8.7,3.2s-6-1.1-8.6-3.2c-2.6-2.1-4.7-5.1-6.1-8.9c-1.5-3.7-2.3-7.9-2.3-12.5c0-4.6,0.7-8.8,2.3-12.6
				c1.5-3.8,3.5-6.9,6.1-9.1c2.6-2.2,5.5-3.3,8.6-3.3C988.2,662.6,991.1,663.7,993.7,665.9z M981.9,668.1c-0.8,1.2-1.4,3.3-1.7,6.4
				c-0.3,3.1-0.5,7.4-0.5,13c0,5.7,0.2,9.9,0.5,12.9c0.3,2.9,0.9,5,1.7,6.2c0.8,1.1,1.9,1.7,3.3,1.7c1.4,0,2.5-0.6,3.3-1.7
				c0.8-1.1,1.4-3.2,1.7-6.2c0.4-3,0.5-7.3,0.5-12.9c0-5.6-0.2-9.9-0.5-12.9c-0.4-3-0.9-5.1-1.7-6.4c-0.8-1.2-1.9-1.9-3.3-1.9
				C983.7,666.3,982.6,666.9,981.9,668.1z"/>
		</g>
		<g>
			<path class="st0" d="M1145.6,665.9c2.6,2.2,4.7,5.2,6.2,9.1c1.5,3.8,2.3,8,2.3,12.6c0,4.5-0.7,8.7-2.3,12.5
				c-1.5,3.7-3.5,6.7-6.2,8.9c-2.6,2.1-5.5,3.2-8.7,3.2s-6-1.1-8.6-3.2c-2.6-2.1-4.7-5.1-6.1-8.9c-1.5-3.7-2.3-7.9-2.3-12.5
				c0-4.6,0.7-8.8,2.3-12.6c1.5-3.8,3.5-6.9,6.1-9.1c2.6-2.2,5.5-3.3,8.6-3.3C1140.1,662.6,1143,663.7,1145.6,665.9z M1133.8,668.1
				c-0.8,1.2-1.4,3.3-1.7,6.4c-0.3,3.1-0.5,7.4-0.5,13c0,5.7,0.2,9.9,0.5,12.9c0.3,2.9,0.9,5,1.7,6.2c0.8,1.1,1.9,1.7,3.3,1.7
				c1.4,0,2.5-0.6,3.3-1.7s1.4-3.2,1.7-6.2c0.4-3,0.5-7.3,0.5-12.9c0-5.6-0.2-9.9-0.5-12.9c-0.4-3-0.9-5.1-1.7-6.4
				c-0.8-1.2-1.9-1.9-3.3-1.9C1135.6,666.3,1134.5,666.9,1133.8,668.1z"/>
		</g>
		<g>
			<path class="st0" d="M1297.5,665.9c2.6,2.2,4.7,5.2,6.2,9.1c1.5,3.8,2.3,8,2.3,12.6c0,4.5-0.7,8.7-2.3,12.5
				c-1.5,3.7-3.5,6.7-6.2,8.9c-2.6,2.1-5.5,3.2-8.7,3.2s-6-1.1-8.6-3.2c-2.6-2.1-4.7-5.1-6.1-8.9c-1.5-3.7-2.3-7.9-2.3-12.5
				c0-4.6,0.7-8.8,2.3-12.6c1.5-3.8,3.5-6.9,6.1-9.1c2.6-2.2,5.5-3.3,8.6-3.3C1292,662.6,1294.9,663.7,1297.5,665.9z M1285.7,668.1
				c-0.8,1.2-1.4,3.3-1.7,6.4c-0.3,3.1-0.5,7.4-0.5,13c0,5.7,0.2,9.9,0.5,12.9c0.3,2.9,0.9,5,1.7,6.2c0.8,1.1,1.9,1.7,3.3,1.7
				c1.4,0,2.5-0.6,3.3-1.7c0.8-1.1,1.4-3.2,1.7-6.2c0.4-3,0.5-7.3,0.5-12.9c0-5.6-0.2-9.9-0.5-12.9c-0.4-3-0.9-5.1-1.7-6.4
				c-0.8-1.2-1.9-1.9-3.3-1.9C1287.6,666.3,1286.4,666.9,1285.7,668.1z"/>
		</g>
		<g>
			<path class="st0" d="M1449.5,665.9c2.6,2.2,4.7,5.2,6.2,9.1c1.5,3.8,2.3,8,2.3,12.6c0,4.5-0.7,8.7-2.3,12.5s-3.5,6.7-6.2,8.9
				c-2.6,2.1-5.5,3.2-8.7,3.2s-6-1.1-8.6-3.2c-2.6-2.1-4.7-5.1-6.1-8.9c-1.5-3.7-2.3-7.9-2.3-12.5c0-4.6,0.7-8.8,2.3-12.6
				c1.5-3.8,3.5-6.9,6.1-9.1s5.5-3.3,8.6-3.3C1443.9,662.6,1446.9,663.7,1449.5,665.9z M1437.6,668.1c-0.8,1.2-1.4,3.3-1.7,6.4
				c-0.3,3.1-0.5,7.4-0.5,13c0,5.7,0.2,9.9,0.5,12.9c0.3,2.9,0.9,5,1.7,6.2c0.8,1.1,1.9,1.7,3.3,1.7c1.4,0,2.5-0.6,3.3-1.7
				c0.8-1.1,1.4-3.2,1.7-6.2c0.4-3,0.5-7.3,0.5-12.9c0-5.6-0.2-9.9-0.5-12.9c-0.4-3-0.9-5.1-1.7-6.4c-0.8-1.2-1.9-1.9-3.3-1.9
				C1439.5,666.3,1438.3,666.9,1437.6,668.1z"/>
		</g>
		<g>
			<path class="st0" d="M1601.4,665.9c2.6,2.2,4.7,5.2,6.2,9.1c1.5,3.8,2.3,8,2.3,12.6c0,4.5-0.7,8.7-2.3,12.5
				c-1.5,3.7-3.5,6.7-6.2,8.9c-2.6,2.1-5.5,3.2-8.7,3.2s-6-1.1-8.6-3.2c-2.6-2.1-4.7-5.1-6.1-8.9c-1.5-3.7-2.3-7.9-2.3-12.5
				c0-4.6,0.7-8.8,2.3-12.6c1.5-3.8,3.5-6.9,6.1-9.1s5.5-3.3,8.6-3.3C1595.9,662.6,1598.8,663.7,1601.4,665.9z M1589.5,668.1
				c-0.8,1.2-1.4,3.3-1.7,6.4c-0.3,3.1-0.5,7.4-0.5,13c0,5.7,0.2,9.9,0.5,12.9c0.3,2.9,0.9,5,1.7,6.2c0.8,1.1,1.9,1.7,3.3,1.7
				c1.4,0,2.5-0.6,3.3-1.7c0.8-1.1,1.4-3.2,1.7-6.2c0.4-3,0.5-7.3,0.5-12.9c0-5.6-0.2-9.9-0.5-12.9c-0.4-3-0.9-5.1-1.7-6.4
				c-0.8-1.2-1.9-1.9-3.3-1.9C1591.4,666.3,1590.3,666.9,1589.5,668.1z"/>
		</g>
		<polygon class="st0" points="310.8,693.8 296.2,687.2 310.8,680.6 		"/>
		<g>
			<path class="st0" d="M631,680.7c1.9-2.2,2.9-4.5,2.9-6.8c0-1.7-0.5-3-1.4-3.9c-0.9-0.9-2.2-1.5-3.8-1.5c-1.7,0-3.4,0.5-5,1.6
				c-1.6,1.1-2.8,2.5-3.7,4.3l-2.3-0.9c0.7-3.3,2.4-5.9,5-7.9s5.7-3,9.3-3c3.5,0,6.3,0.9,8.4,2.7s3.2,4.1,3.2,7.1
				c0,2.4-0.9,4.5-2.6,6.3c-1.7,1.9-3.8,3.1-6.3,3.7v0.3c3.5,0.3,6.4,1.7,8.5,4c2.1,2.3,3.2,5.3,3.2,8.8c0,3-0.8,5.8-2.4,8.3
				s-3.8,4.5-6.5,6.1c-2.7,1.5-5.7,2.2-9.1,2.2c-2.4,0-4.5-0.4-6.5-1.1c-1.9-0.8-3.5-1.8-4.7-3.1c-1.1-1.3-1.7-2.8-1.7-4.3
				c0-1.4,0.4-2.5,1.2-3.3c0.8-0.9,1.9-1.3,3.2-1.3c1.3,0,2.2,0.4,2.8,1.1c0.6,0.7,1.2,1.9,1.9,3.3c0.7,1.6,1.3,2.8,2.1,3.6
				c0.7,0.8,1.8,1.2,3.3,1.2c1.9,0,3.5-0.8,4.6-2.4c1.1-1.6,1.7-3.7,1.7-6.5c0-3.3-0.8-6-2.5-7.9c-1.6-1.9-3.9-2.9-6.7-2.9
				c-1.3,0-2.4,0.1-3.4,0.3l-1-2.7C626.4,684.6,629,682.9,631,680.7z"/>
		</g>
		<polygon class="st0" points="611.7,693.8 597.1,687.2 611.7,680.6 		"/>
		<g>
			<path class="st0" d="M1238.7,680.7c1.9-2.2,2.9-4.5,2.9-6.8c0-1.7-0.5-3-1.4-3.9c-0.9-0.9-2.2-1.5-3.8-1.5c-1.7,0-3.4,0.5-5,1.6
				c-1.6,1.1-2.8,2.5-3.7,4.3l-2.3-0.9c0.7-3.3,2.4-5.9,5-7.9c2.6-2,5.7-3,9.3-3c3.5,0,6.3,0.9,8.4,2.7c2.1,1.8,3.2,4.1,3.2,7.1
				c0,2.4-0.9,4.5-2.6,6.3c-1.7,1.9-3.8,3.1-6.3,3.7v0.3c3.5,0.3,6.4,1.7,8.5,4c2.1,2.3,3.2,5.3,3.2,8.8c0,3-0.8,5.8-2.4,8.3
				s-3.8,4.5-6.5,6.1c-2.7,1.5-5.7,2.2-9.1,2.2c-2.4,0-4.5-0.4-6.5-1.1c-1.9-0.8-3.5-1.8-4.7-3.1c-1.1-1.3-1.7-2.8-1.7-4.3
				c0-1.4,0.4-2.5,1.2-3.3c0.8-0.9,1.9-1.3,3.2-1.3c1.3,0,2.2,0.4,2.8,1.1c0.6,0.7,1.2,1.9,1.9,3.3c0.7,1.6,1.3,2.8,2.1,3.6
				c0.7,0.8,1.8,1.2,3.3,1.2c1.9,0,3.5-0.8,4.6-2.4c1.1-1.6,1.7-3.7,1.7-6.5c0-3.3-0.8-6-2.5-7.9c-1.6-1.9-3.9-2.9-6.7-2.9
				c-1.3,0-2.4,0.1-3.4,0.3l-1-2.7C1234,684.6,1236.7,682.9,1238.7,680.7z"/>
		</g>
		<g>
			<path class="st0" d="M1373.6,707.8c5.2-5,9.3-9.3,12.3-12.9c3.1-3.6,5.3-6.8,6.7-9.6s2.1-5.5,2.1-7.9c0-2.7-0.7-4.8-2-6.4
				c-1.3-1.6-3.1-2.4-5.3-2.4c-1.9,0-3.9,0.7-5.7,2.1c-1.9,1.3-3.4,3.1-4.5,5.2l-2.6-1.3c1.4-3.7,3.5-6.7,6.4-8.8
				c2.9-2.1,6.1-3.2,9.7-3.2c2.7,0,5.2,0.6,7.4,1.8c2.3,1.2,4,2.8,5.3,4.9c1.3,2.1,1.9,4.4,1.9,6.9c0,2.6-0.7,5.3-2,7.9
				s-3.5,5.4-6.5,8.5c-3,3.1-7.2,6.7-12.5,10.7h14.9c1.3-1.3,2.7-3.4,4.4-6.4l2.8,0.5l-5.2,16.2h-2l-1.3-2.1h-23.7L1373.6,707.8z"/>
		</g>
		<g>
			<path class="st0" d="M1550.5,707.6l7.9,1.6v2.3H1533v-2.3l7.7-1.6v-34.6h-7.7v-2.7c2.8-0.5,5.3-1.3,7.6-2.6
				c2.3-1.2,4.6-2.9,6.9-5.1l2.9,0.5L1550.5,707.6L1550.5,707.6z"/>
		</g>
		<g>
			<path class="st0" d="M765.6,699.4l-1.1-3.7l23.4-33.2l5,0.6v30.1h5.8v6.1h-5.8v8.3l5.6,1.5v2.3h-22.8v-2.3l7.5-1.5v-8.3
				L765.6,699.4L765.6,699.4z M782.9,676.6L771.2,693l0.1,0.3h11.9v-16.7H782.9z"/>
		</g>
		<polygon class="st0" points="756.9,693.8 742.4,687.2 756.9,680.6 		"/>
		<g>
			<path class="st0" d="M1069.3,699.4l-1.1-3.7l23.4-33.2l5,0.6v30.1h5.8v6.1h-5.8v8.3l5.6,1.5v2.3h-22.8v-2.3l7.5-1.5v-8.3
				L1069.3,699.4L1069.3,699.4z M1086.6,676.6l-11.7,16.4l0.1,0.3h11.9v-16.7H1086.6z"/>
		</g>
		<polygon class="st0" points="1163.7,693.8 1178.2,687.2 1163.7,680.6 		"/>
		<polygon class="st0" points="1315.6,693.8 1330.1,687.2 1315.6,680.6 		"/>
		<polygon class="st0" points="1467.5,693.8 1482,687.2 1467.5,680.6 		"/>
		<polygon class="st0" points="1619.4,693.8 1634,687.2 1619.4,680.6 		"/>
		<g>
			<path class="st0" d="M931.7,680.2c0.7-0.1,1.7-0.1,2.7-0.1c3.2,0,6.1,0.6,8.5,1.8c2.5,1.2,4.3,2.9,5.7,5.1c1.3,2.2,2,4.7,2,7.6
				c0,3.3-0.8,6.3-2.4,8.9c-1.6,2.7-3.8,4.7-6.5,6.3c-2.8,1.5-5.9,2.3-9.3,2.3c-2.3,0-4.5-0.3-6.3-1.1c-1.9-0.7-3.4-1.7-4.5-2.9
				c-1.1-1.2-1.6-2.6-1.6-4.1c0-1.3,0.4-2.5,1.3-3.3s1.9-1.3,3.2-1.3c1.2,0,2.1,0.3,2.6,1c0.5,0.7,1.1,1.7,1.6,3.1
				c0.6,1.5,1.3,2.7,2,3.5c0.7,0.8,1.9,1.2,3.5,1.2c2.3,0,4.3-0.9,5.7-2.7c1.5-1.8,2.3-4.1,2.3-6.8c0-2.8-0.9-5.1-2.6-6.9
				c-1.7-1.8-4-2.7-6.8-2.7c-2.4,0-4.5,0.6-6.3,1.8h-2.6l3.7-26.9h17.1c0.4-0.5,1.1-1.5,1.9-3.1l2.3,1.1l-2.7,10.7h-15.5l-1.1,8.1
				C930.2,680.5,930.9,680.3,931.7,680.2z"/>
		</g>
		<g>
			<path class="st0" d="M462.3,707.8c5.2-5,9.3-9.3,12.3-12.9c3.1-3.6,5.3-6.8,6.7-9.6c1.4-2.8,2.1-5.5,2.1-7.9c0-2.7-0.7-4.8-2-6.4
				c-1.3-1.6-3.1-2.4-5.3-2.4c-1.9,0-3.9,0.7-5.7,2.1c-1.9,1.3-3.4,3.1-4.5,5.2l-2.6-1.3c1.4-3.7,3.5-6.7,6.4-8.8s6.1-3.2,9.7-3.2
				c2.7,0,5.2,0.6,7.4,1.8c2.3,1.2,4,2.8,5.3,4.9c1.3,2.1,1.9,4.4,1.9,6.9c0,2.6-0.7,5.3-2,7.9s-3.5,5.4-6.5,8.5
				c-3,3.1-7.2,6.7-12.5,10.7h14.9c1.3-1.3,2.7-3.4,4.4-6.4l2.8,0.5l-5.2,16.2h-2l-1.3-2.1h-23.7L462.3,707.8z"/>
		</g>
		<polygon class="st0" points="457.2,693.8 442.7,687.2 457.2,680.6 		"/>
	</g>
	<g>
		<g>
			<path class="st0" d="M1584.1,193.1l-7.9-1.6v-2.3h25.3v2.3l-7.7,1.6v34.6h7.7v2.7c-2.8,0.5-5.3,1.3-7.6,2.6
				c-2.3,1.2-4.6,2.9-6.9,5.1l-2.9-0.5L1584.1,193.1L1584.1,193.1z"/>
		</g>
		<g>
			<path class="st0" d="M1532.8,234.8c-2.6-2.2-4.7-5.2-6.2-9.1c-1.5-3.8-2.3-8-2.3-12.6c0-4.5,0.7-8.7,2.3-12.5
				c1.5-3.7,3.5-6.7,6.2-8.9c2.6-2.1,5.5-3.2,8.7-3.2c3.1,0,6,1.1,8.6,3.2c2.6,2.1,4.7,5.1,6.1,8.9c1.5,3.7,2.3,7.9,2.3,12.5
				c0,4.6-0.7,8.8-2.3,12.6c-1.5,3.8-3.5,6.9-6.1,9.1c-2.6,2.2-5.5,3.3-8.6,3.3C1538.3,238.1,1535.4,237,1532.8,234.8z
				 M1544.7,232.5c0.8-1.2,1.4-3.3,1.7-6.4c0.3-3.1,0.5-7.4,0.5-13c0-5.7-0.2-9.9-0.5-12.9c-0.3-2.9-0.9-5-1.7-6.2
				c-0.8-1.1-1.9-1.7-3.3-1.7c-1.4,0-2.5,0.6-3.3,1.7s-1.4,3.2-1.7,6.2c-0.3,3-0.5,7.3-0.5,12.9c0,5.6,0.2,9.9,0.5,12.9
				c0.4,3,0.9,5.1,1.7,6.4c0.8,1.2,1.9,1.9,3.3,1.9C1542.8,234.3,1543.9,233.7,1544.7,232.5z"/>
		</g>
		<g>
			<path class="st0" d="M1380.9,234.8c-2.6-2.2-4.7-5.2-6.2-9.1c-1.5-3.8-2.3-8-2.3-12.6c0-4.5,0.7-8.7,2.3-12.5
				c1.5-3.7,3.5-6.7,6.2-8.9c2.6-2.1,5.5-3.2,8.7-3.2s6,1.1,8.6,3.2c2.6,2.1,4.7,5.1,6.1,8.9c1.5,3.7,2.3,7.9,2.3,12.5
				c0,4.6-0.7,8.8-2.3,12.6c-1.5,3.8-3.5,6.9-6.1,9.1c-2.6,2.2-5.5,3.3-8.6,3.3C1386.4,238.1,1383.5,237,1380.9,234.8z
				 M1392.8,232.5c0.8-1.2,1.4-3.3,1.7-6.4c0.3-3.1,0.5-7.4,0.5-13c0-5.7-0.2-9.9-0.5-12.9c-0.3-2.9-0.9-5-1.7-6.2
				c-0.8-1.1-1.9-1.7-3.3-1.7c-1.4,0-2.5,0.6-3.3,1.7s-1.4,3.2-1.7,6.2c-0.3,3-0.5,7.3-0.5,12.9c0,5.6,0.2,9.9,0.5,12.9
				c0.4,3,0.9,5.1,1.7,6.4c0.8,1.2,1.9,1.9,3.3,1.9C1390.9,234.3,1392,233.7,1392.8,232.5z"/>
		</g>
		<g>
			<path class="st0" d="M1229,234.8c-2.6-2.2-4.7-5.2-6.2-9.1c-1.5-3.8-2.3-8-2.3-12.6c0-4.5,0.7-8.7,2.3-12.5
				c1.5-3.7,3.5-6.7,6.2-8.9c2.6-2.1,5.5-3.2,8.7-3.2s6,1.1,8.6,3.2c2.6,2.1,4.7,5.1,6.1,8.9c1.5,3.7,2.3,7.9,2.3,12.5
				c0,4.6-0.7,8.8-2.3,12.6c-1.5,3.8-3.5,6.9-6.1,9.1c-2.6,2.2-5.5,3.3-8.6,3.3C1234.4,238.1,1231.6,237,1229,234.8z M1240.8,232.5
				c0.8-1.2,1.4-3.3,1.7-6.4c0.3-3.1,0.5-7.4,0.5-13c0-5.7-0.2-9.9-0.5-12.9c-0.3-2.9-0.9-5-1.7-6.2c-0.8-1.1-1.9-1.7-3.3-1.7
				s-2.5,0.6-3.3,1.7c-0.8,1.1-1.4,3.2-1.7,6.2c-0.3,3-0.5,7.3-0.5,12.9c0,5.6,0.2,9.9,0.5,12.9c0.4,3,0.9,5.1,1.7,6.4
				c0.8,1.2,1.9,1.9,3.3,1.9C1239,234.3,1240,233.7,1240.8,232.5z"/>
		</g>
		<g>
			<path class="st0" d="M1077.1,234.8c-2.6-2.2-4.7-5.2-6.2-9.1c-1.5-3.8-2.3-8-2.3-12.6c0-4.5,0.7-8.7,2.3-12.5
				c1.5-3.7,3.5-6.7,6.2-8.9c2.6-2.1,5.5-3.2,8.7-3.2s6,1.1,8.6,3.2c2.6,2.1,4.7,5.1,6.1,8.9c1.5,3.7,2.3,7.9,2.3,12.5
				c0,4.6-0.7,8.8-2.3,12.6c-1.5,3.8-3.5,6.9-6.1,9.1c-2.6,2.2-5.5,3.3-8.6,3.3C1082.5,238.1,1079.7,237,1077.1,234.8z
				 M1088.9,232.5c0.8-1.2,1.4-3.3,1.7-6.4c0.3-3.1,0.5-7.4,0.5-13c0-5.7-0.2-9.9-0.5-12.9c-0.3-2.9-0.9-5-1.7-6.2
				c-0.8-1.1-1.9-1.7-3.3-1.7c-1.4,0-2.5,0.6-3.3,1.7s-1.4,3.2-1.7,6.2c-0.3,3-0.5,7.3-0.5,12.9c0,5.6,0.2,9.9,0.5,12.9
				c0.4,3,0.9,5.1,1.7,6.4c0.8,1.2,1.9,1.9,3.3,1.9C1087.1,234.3,1088.1,233.7,1088.9,232.5z"/>
		</g>
		<g>
			<path class="st0" d="M925.2,234.8c-2.6-2.2-4.7-5.2-6.2-9.1c-1.5-3.8-2.3-8-2.3-12.6c0-4.5,0.7-8.7,2.3-12.5
				c1.5-3.7,3.5-6.7,6.2-8.9c2.6-2.1,5.5-3.2,8.7-3.2s6,1.1,8.6,3.2c2.6,2.1,4.7,5.1,6.1,8.9c1.5,3.7,2.3,7.9,2.3,12.5
				c0,4.6-0.7,8.8-2.3,12.6c-1.5,3.8-3.5,6.9-6.1,9.1c-2.6,2.2-5.5,3.3-8.6,3.3C930.6,238.1,927.7,237,925.2,234.8z M937,232.5
				c0.8-1.2,1.4-3.3,1.7-6.4c0.3-3.1,0.5-7.4,0.5-13c0-5.7-0.2-9.9-0.5-12.9c-0.3-2.9-0.9-5-1.7-6.2c-0.8-1.1-1.9-1.7-3.3-1.7
				s-2.5,0.6-3.3,1.7c-0.8,1.1-1.4,3.2-1.7,6.2c-0.4,3-0.5,7.3-0.5,12.9c0,5.6,0.2,9.9,0.5,12.9c0.4,3,0.9,5.1,1.7,6.4
				c0.8,1.2,1.9,1.9,3.3,1.9C935.1,234.3,936.2,233.7,937,232.5z"/>
		</g>
		<g>
			<path class="st0" d="M773.2,234.8c-2.6-2.2-4.7-5.2-6.2-9.1c-1.5-3.8-2.3-8-2.3-12.6c0-4.5,0.7-8.7,2.3-12.5
				c1.5-3.7,3.5-6.7,6.2-8.9c2.6-2.1,5.5-3.2,8.7-3.2s6,1.1,8.6,3.2c2.6,2.1,4.7,5.1,6.1,8.9c1.5,3.7,2.3,7.9,2.3,12.5
				c0,4.6-0.7,8.8-2.3,12.6c-1.5,3.8-3.5,6.9-6.1,9.1c-2.6,2.2-5.5,3.3-8.6,3.3C778.7,238.1,775.8,237,773.2,234.8z M785.1,232.5
				c0.8-1.2,1.4-3.3,1.7-6.4c0.3-3.1,0.5-7.4,0.5-13c0-5.7-0.2-9.9-0.5-12.9c-0.3-2.9-0.9-5-1.7-6.2c-0.8-1.1-1.9-1.7-3.3-1.7
				c-1.4,0-2.5,0.6-3.3,1.7c-0.8,1.1-1.4,3.2-1.7,6.2c-0.4,3-0.5,7.3-0.5,12.9c0,5.6,0.2,9.9,0.5,12.9c0.4,3,0.9,5.1,1.7,6.4
				c0.8,1.2,1.9,1.9,3.3,1.9C783.2,234.3,784.3,233.7,785.1,232.5z"/>
		</g>
		<g>
			<path class="st0" d="M621.3,234.8c-2.6-2.2-4.7-5.2-6.2-9.1c-1.5-3.8-2.3-8-2.3-12.6c0-4.5,0.7-8.7,2.3-12.5
				c1.5-3.7,3.5-6.7,6.2-8.9c2.6-2.1,5.5-3.2,8.7-3.2c3.1,0,6,1.1,8.6,3.2c2.6,2.1,4.7,5.1,6.1,8.9c1.5,3.7,2.3,7.9,2.3,12.5
				c0,4.6-0.7,8.8-2.3,12.6c-1.5,3.8-3.5,6.9-6.1,9.1c-2.6,2.2-5.5,3.3-8.6,3.3C626.8,238.1,623.9,237,621.3,234.8z M633.2,232.5
				c0.8-1.2,1.4-3.3,1.7-6.4c0.3-3.1,0.5-7.4,0.5-13c0-5.7-0.2-9.9-0.5-12.9c-0.3-2.9-0.9-5-1.7-6.2c-0.8-1.1-1.9-1.7-3.3-1.7
				c-1.4,0-2.5,0.6-3.3,1.7s-1.4,3.2-1.7,6.2c-0.4,3-0.5,7.3-0.5,12.9c0,5.6,0.2,9.9,0.5,12.9c0.4,3,0.9,5.1,1.7,6.4
				c0.8,1.2,1.9,1.9,3.3,1.9C631.3,234.3,632.4,233.7,633.2,232.5z"/>
		</g>
		<g>
			<path class="st0" d="M469.4,234.8c-2.6-2.2-4.7-5.2-6.2-9.1c-1.5-3.8-2.3-8-2.3-12.6c0-4.5,0.7-8.7,2.3-12.5
				c1.5-3.7,3.5-6.7,6.2-8.9c2.6-2.1,5.5-3.2,8.7-3.2s6,1.1,8.6,3.2c2.6,2.1,4.7,5.1,6.1,8.9c1.5,3.7,2.3,7.9,2.3,12.5
				c0,4.6-0.7,8.8-2.3,12.6c-1.5,3.8-3.5,6.9-6.1,9.1c-2.6,2.2-5.5,3.3-8.6,3.3C474.9,238.1,472,237,469.4,234.8z M481.3,232.5
				c0.8-1.2,1.4-3.3,1.7-6.4c0.3-3.1,0.5-7.4,0.5-13c0-5.7-0.2-9.9-0.5-12.9c-0.3-2.9-0.9-5-1.7-6.2c-0.8-1.1-1.9-1.7-3.3-1.7
				s-2.5,0.6-3.3,1.7c-0.8,1.1-1.4,3.2-1.7,6.2c-0.4,3-0.5,7.3-0.5,12.9c0,5.6,0.2,9.9,0.5,12.9c0.4,3,0.9,5.1,1.7,6.4
				c0.8,1.2,1.9,1.9,3.3,1.9C479.4,234.3,480.5,233.7,481.3,232.5z"/>
		</g>
		<g>
			<path class="st0" d="M317.5,234.8c-2.6-2.2-4.7-5.2-6.2-9.1c-1.5-3.8-2.3-8-2.3-12.6c0-4.5,0.7-8.7,2.3-12.5
				c1.5-3.7,3.5-6.7,6.2-8.9c2.6-2.1,5.5-3.2,8.7-3.2s6,1.1,8.6,3.2c2.6,2.1,4.7,5.1,6.1,8.9c1.5,3.7,2.3,7.9,2.3,12.5
				c0,4.6-0.7,8.8-2.3,12.6c-1.5,3.8-3.5,6.9-6.1,9.1c-2.6,2.2-5.5,3.3-8.6,3.3C322.9,238.1,320.1,237,317.5,234.8z M329.3,232.5
				c0.8-1.2,1.4-3.3,1.7-6.4c0.3-3.1,0.5-7.4,0.5-13c0-5.7-0.2-9.9-0.5-12.9c-0.3-2.9-0.9-5-1.7-6.2c-0.8-1.1-1.9-1.7-3.3-1.7
				s-2.5,0.6-3.3,1.7s-1.4,3.2-1.7,6.2c-0.4,3-0.5,7.3-0.5,12.9c0,5.6,0.2,9.9,0.5,12.9c0.4,3,0.9,5.1,1.7,6.4
				c0.8,1.2,1.9,1.9,3.3,1.9C327.5,234.3,328.5,233.7,329.3,232.5z"/>
		</g>
		<polygon class="st0" points="1608.1,206.9 1622.6,213.5 1608.1,220.1 		"/>
		<g>
			<path class="st0" d="M1287.8,220c-1.9,2.2-2.9,4.5-2.9,6.8c0,1.7,0.5,3,1.4,3.9c0.9,0.9,2.2,1.5,3.8,1.5c1.7,0,3.4-0.5,5-1.6
				s2.8-2.5,3.7-4.3l2.3,0.9c-0.7,3.3-2.4,5.9-5,7.9c-2.6,2-5.7,3-9.3,3c-3.5,0-6.3-0.9-8.4-2.7c-2.1-1.8-3.2-4.1-3.2-7.1
				c0-2.4,0.9-4.5,2.6-6.3c1.7-1.9,3.8-3.1,6.3-3.7V218c-3.5-0.3-6.4-1.7-8.5-4c-2.1-2.3-3.2-5.3-3.2-8.8c0-3,0.8-5.8,2.4-8.3
				c1.6-2.5,3.8-4.5,6.5-6.1c2.7-1.5,5.7-2.2,9.1-2.2c2.4,0,4.5,0.4,6.5,1.1c1.9,0.8,3.5,1.8,4.7,3.1c1.1,1.3,1.7,2.8,1.7,4.3
				c0,1.4-0.4,2.5-1.2,3.3c-0.8,0.9-1.9,1.3-3.2,1.3c-1.3,0-2.2-0.4-2.8-1.1c-0.6-0.7-1.2-1.9-1.9-3.3c-0.7-1.6-1.3-2.8-2.1-3.6
				c-0.7-0.8-1.8-1.2-3.3-1.2c-1.9,0-3.5,0.8-4.6,2.4s-1.7,3.7-1.7,6.5c0,3.3,0.8,6,2.5,7.9c1.6,1.9,3.9,2.9,6.7,2.9
				c1.3,0,2.4-0.1,3.4-0.3l1,2.7C1292.4,216.1,1289.8,217.8,1287.8,220z"/>
		</g>
		<polygon class="st0" points="1307.2,206.9 1321.7,213.5 1307.2,220.1 		"/>
		<g>
			<path class="st0" d="M680.2,220c-1.9,2.2-2.9,4.5-2.9,6.8c0,1.7,0.5,3,1.4,3.9c0.9,0.9,2.2,1.5,3.8,1.5c1.7,0,3.4-0.5,5-1.6
				c1.6-1.1,2.8-2.5,3.7-4.3l2.3,0.9c-0.7,3.3-2.4,5.9-5,7.9c-2.6,2-5.7,3-9.3,3c-3.5,0-6.3-0.9-8.4-2.7s-3.2-4.1-3.2-7.1
				c0-2.4,0.9-4.5,2.6-6.3c1.7-1.9,3.8-3.1,6.3-3.7V218c-3.5-0.3-6.4-1.7-8.5-4c-2.1-2.3-3.2-5.3-3.2-8.8c0-3,0.8-5.8,2.4-8.3
				s3.8-4.5,6.5-6.1c2.7-1.5,5.7-2.2,9.1-2.2c2.4,0,4.5,0.4,6.5,1.1c1.9,0.8,3.5,1.8,4.7,3.1c1.1,1.3,1.7,2.8,1.7,4.3
				c0,1.4-0.4,2.5-1.2,3.3c-0.8,0.9-1.9,1.3-3.2,1.3c-1.3,0-2.2-0.4-2.8-1.1c-0.6-0.7-1.2-1.9-1.9-3.3c-0.7-1.6-1.3-2.8-2.1-3.6
				c-0.7-0.8-1.8-1.2-3.3-1.2c-1.9,0-3.5,0.8-4.6,2.4c-1.1,1.6-1.7,3.7-1.7,6.5c0,3.3,0.8,6,2.5,7.9c1.6,1.9,3.9,2.9,6.7,2.9
				c1.3,0,2.4-0.1,3.4-0.3l1,2.7C684.7,216.1,682.1,217.8,680.2,220z"/>
		</g>
		<g>
			<path class="st0" d="M545.2,192.9c-5.2,5-9.3,9.3-12.3,12.9c-3.1,3.6-5.3,6.8-6.7,9.6c-1.4,2.8-2.1,5.5-2.1,7.9
				c0,2.7,0.7,4.8,2,6.4s3.1,2.4,5.3,2.4c1.9,0,3.9-0.7,5.7-2.1c1.9-1.3,3.4-3.1,4.5-5.2l2.6,1.3c-1.4,3.7-3.5,6.7-6.4,8.8
				c-2.9,2.1-6.1,3.2-9.7,3.2c-2.7,0-5.2-0.6-7.4-1.8c-2.3-1.2-4-2.8-5.3-4.9c-1.3-2.1-1.9-4.4-1.9-6.9c0-2.6,0.7-5.3,2-7.9
				c1.3-2.6,3.5-5.4,6.5-8.5c3-3.1,7.2-6.7,12.5-10.7h-14.9c-1.3,1.3-2.7,3.4-4.4,6.4l-2.8-0.5l5.1-16.2h2l1.3,2.1h23.7L545.2,192.9
				z"/>
		</g>
		<g>
			<path class="st0" d="M368.4,193.1l-7.9-1.6v-2.3h25.3v2.3l-7.7,1.6v34.6h7.7v2.7c-2.8,0.5-5.3,1.3-7.6,2.6
				c-2.3,1.2-4.6,2.9-6.9,5.1l-2.9-0.5L368.4,193.1L368.4,193.1z"/>
		</g>
		<g>
			<path class="st0" d="M1153.3,201.3l1.1,3.7l-23.4,33.2l-5-0.6v-30.1h-5.8v-6.1h5.8v-8.3l-5.6-1.5v-2.3h22.8v2.3l-7.5,1.5v8.3
				L1153.3,201.3L1153.3,201.3z M1136,224.1l11.7-16.4l-0.1-0.3h-11.9v16.7H1136z"/>
		</g>
		<polygon class="st0" points="1162,206.9 1176.5,213.5 1162,220.1 		"/>
		<g>
			<path class="st0" d="M849.6,201.3l1.1,3.7l-23.4,33.2l-5-0.6v-30.1h-5.8v-6.1h5.8v-8.3l-5.6-1.5v-2.3h22.8v2.3l-7.5,1.5v8.3
				L849.6,201.3L849.6,201.3z M832.3,224.1l11.7-16.4l-0.1-0.3H832v16.7H832.3z"/>
		</g>
		<polygon class="st0" points="755.2,206.9 740.7,213.5 755.2,220.1 		"/>
		<polygon class="st0" points="603.3,206.9 588.7,213.5 603.3,220.1 		"/>
		<polygon class="st0" points="451.3,206.9 436.8,213.5 451.3,220.1 		"/>
		<polygon class="st0" points="299.4,206.9 284.9,213.5 299.4,220.1 		"/>
		<g>
			<path class="st0" d="M987.2,220.5c-0.7,0.1-1.7,0.1-2.7,0.1c-3.2,0-6.1-0.6-8.5-1.8c-2.5-1.2-4.3-2.9-5.7-5.1
				c-1.3-2.2-2-4.7-2-7.6c0-3.3,0.8-6.3,2.4-8.9c1.6-2.7,3.8-4.7,6.5-6.3c2.8-1.5,5.9-2.3,9.3-2.3c2.3,0,4.5,0.3,6.3,1.1
				c1.9,0.7,3.4,1.7,4.5,2.9c1.1,1.2,1.6,2.6,1.6,4.1c0,1.3-0.4,2.5-1.3,3.3s-1.9,1.3-3.2,1.3c-1.2,0-2.1-0.3-2.6-1
				c-0.5-0.7-1.1-1.7-1.6-3.1c-0.6-1.5-1.3-2.7-2-3.5s-1.9-1.2-3.5-1.2c-2.3,0-4.3,0.9-5.7,2.7c-1.5,1.8-2.3,4.1-2.3,6.8
				c0,2.8,0.9,5.1,2.6,6.9c1.7,1.8,4,2.7,6.8,2.7c2.4,0,4.5-0.6,6.3-1.8h2.6l-3.7,26.9h-17.1c-0.4,0.5-1.1,1.5-1.9,3.1l-2.3-1.1
				l2.7-10.7h15.5l1.1-8.1C988.6,220.2,987.9,220.4,987.2,220.5z"/>
		</g>
		<g>
			<path class="st0" d="M1456.6,192.9c-5.2,5-9.3,9.3-12.3,12.9c-3.1,3.6-5.3,6.8-6.7,9.6c-1.4,2.8-2.1,5.5-2.1,7.9
				c0,2.7,0.7,4.8,2,6.4c1.3,1.6,3.1,2.4,5.3,2.4c1.9,0,3.9-0.7,5.7-2.1c1.9-1.3,3.4-3.1,4.5-5.2l2.6,1.3c-1.4,3.7-3.5,6.7-6.4,8.8
				s-6.1,3.2-9.7,3.2c-2.7,0-5.2-0.6-7.4-1.8c-2.3-1.2-4-2.8-5.3-4.9c-1.3-2.1-1.9-4.4-1.9-6.9c0-2.6,0.7-5.3,2-7.9
				c1.3-2.6,3.5-5.4,6.5-8.5c3-3.1,7.2-6.7,12.5-10.7h-14.9c-1.3,1.3-2.7,3.4-4.4,6.4l-2.8-0.5l5.2-16.2h2l1.3,2.1h23.7
				L1456.6,192.9z"/>
		</g>
		<polygon class="st0" points="1461.7,206.9 1476.2,213.5 1461.7,220.1 		"/>
	</g>
</g>
</svg>
