<?xml version="1.0" encoding="utf-8"?>
<!-- Generator: Adobe Illustrator 23.0.3, SVG Export Plug-In . SVG Version: 6.00 Build 0)  -->
<svg version="1.1" id="Layer_1" xmlns="http://www.w3.org/2000/svg" xmlns:xlink="http://www.w3.org/1999/xlink" x="0px" y="0px"
	 viewBox="0 0 949 500.3" style="enable-background:new 0 0 949 500.3;" xml:space="preserve">
<style type="text/css">
	.st0{fill:url(#SVGID_1_);}
	.st1{fill:none;stroke:#FFFFFF;}
	.st2{fill:#006838;}
	.st3{fill:#FFFFFF;}
	.st4{clip-path:url(#SVGID_3_);}
	.st5{fill:#009444;}
	.st6{clip-path:url(#SVGID_5_);}
	.st7{display:none;}
	.st8{display:inline;}
</style>
<radialGradient id="SVGID_1_" cx="474.5" cy="542.15" r="379.2923" gradientTransform="matrix(1 0 0 1 0 -292)" gradientUnits="userSpaceOnUse">
	<stop  offset="0" style="stop-color:#8DC63F"/>
	<stop  offset="0.2425" style="stop-color:#7DC341"/>
	<stop  offset="0.7108" style="stop-color:#55BB46"/>
	<stop  offset="1" style="stop-color:#39B54A"/>
</radialGradient>
<rect class="st0" width="949" height="500.3"/>
<rect x="6.3" y="39" class="st1" width="937.8" height="423.8"/>
<line class="st1" x1="82.4" y1="38.9" x2="82.4" y2="464.9"/>
<line class="st1" x1="121.5" y1="38.9" x2="121.5" y2="464.9"/>
<line class="st1" x1="160.6" y1="38.9" x2="160.6" y2="464.9"/>
<line class="st1" x1="199.8" y1="38.9" x2="199.8" y2="464.9"/>
<line class="st1" x1="238.9" y1="38.9" x2="238.9" y2="464.9"/>
<line class="st1" x1="278.1" y1="38.9" x2="278.1" y2="464.9"/>
<line class="st1" x1="317.2" y1="38.9" x2="317.2" y2="464.9"/>
<line class="st1" x1="356.3" y1="38.9" x2="356.3" y2="464.9"/>
<line class="st1" x1="395.5" y1="38.9" x2="395.5" y2="464.9"/>
<line class="st1" x1="434.6" y1="38.9" x2="434.6" y2="464.9"/>
<line class="st1" x1="473.7" y1="38.9" x2="473.7" y2="464.9"/>
<line class="st1" x1="512.9" y1="38.9" x2="512.9" y2="464.9"/>
<line class="st1" x1="552" y1="38.9" x2="552" y2="464.9"/>
<line class="st1" x1="591.1" y1="38.9" x2="591.1" y2="464.9"/>
<line class="st1" x1="630.3" y1="38.9" x2="630.3" y2="464.9"/>
<line class="st1" x1="669.4" y1="38.9" x2="669.4" y2="464.9"/>
<line class="st1" x1="708.5" y1="38.9" x2="708.5" y2="464.9"/>
<line class="st1" x1="747.7" y1="38.9" x2="747.7" y2="464.9"/>
<line class="st1" x1="786.8" y1="38.9" x2="786.8" y2="464.9"/>
<line class="st1" x1="825.9" y1="38.9" x2="825.9" y2="464.9"/>
<line class="st1" x1="865.1" y1="38.9" x2="865.1" y2="464.9"/>
<rect x="864.1" y="38.6" class="st2" width="79.7" height="419.7"/>
<rect x="6.3" y="38.6" class="st2" width="79.7" height="419.7"/>
<g>
	<rect x="89.8" y="39.9" class="st3" width="3.6" height="9"/>
	<rect x="97.7" y="39.9" class="st3" width="3.6" height="9"/>
	<rect x="105.7" y="39.9" class="st3" width="3.6" height="9"/>
	<rect x="113.6" y="39.9" class="st3" width="3.6" height="9"/>
</g>
<g>
	<rect x="128.9" y="39.9" class="st3" width="3.6" height="9"/>
	<rect x="136.9" y="39.9" class="st3" width="3.6" height="9"/>
	<rect x="144.8" y="39.9" class="st3" width="3.6" height="9"/>
	<rect x="152.8" y="39.9" class="st3" width="3.6" height="9"/>
</g>
<g>
	<rect x="168.1" y="39.9" class="st3" width="3.6" height="9"/>
	<rect x="176" y="39.9" class="st3" width="3.6" height="9"/>
	<rect x="184" y="39.9" class="st3" width="3.6" height="9"/>
	<rect x="191.9" y="39.9" class="st3" width="3.6" height="9"/>
</g>
<g>
	<rect x="207.2" y="39.9" class="st3" width="3.6" height="9"/>
	<rect x="215.2" y="39.9" class="st3" width="3.6" height="9"/>
	<rect x="223.1" y="39.9" class="st3" width="3.6" height="9"/>
	<rect x="231.1" y="39.9" class="st3" width="3.6" height="9"/>
</g>
<g>
	<rect x="246.4" y="39.9" class="st3" width="3.6" height="9"/>
	<rect x="254.3" y="39.9" class="st3" width="3.6" height="9"/>
	<rect x="262.3" y="39.9" class="st3" width="3.6" height="9"/>
	<rect x="270.2" y="39.9" class="st3" width="3.6" height="9"/>
</g>
<g>
	<rect x="285.5" y="39.9" class="st3" width="3.6" height="9"/>
	<rect x="293.5" y="39.9" class="st3" width="3.6" height="9"/>
	<rect x="301.4" y="39.9" class="st3" width="3.6" height="9"/>
	<rect x="309.4" y="39.9" class="st3" width="3.6" height="9"/>
</g>
<g>
	<rect x="324.7" y="39.9" class="st3" width="3.6" height="9"/>
	<rect x="332.6" y="39.9" class="st3" width="3.6" height="9"/>
	<rect x="340.6" y="39.9" class="st3" width="3.6" height="9"/>
	<rect x="348.5" y="39.9" class="st3" width="3.6" height="9"/>
</g>
<g>
	<rect x="363.8" y="39.9" class="st3" width="3.6" height="9"/>
	<rect x="371.8" y="39.9" class="st3" width="3.6" height="9"/>
	<rect x="379.7" y="39.9" class="st3" width="3.6" height="9"/>
	<rect x="387.7" y="39.9" class="st3" width="3.6" height="9"/>
</g>
<g>
	<rect x="403" y="39.9" class="st3" width="3.6" height="9"/>
	<rect x="410.9" y="39.9" class="st3" width="3.6" height="9"/>
	<rect x="418.9" y="39.9" class="st3" width="3.6" height="9"/>
	<rect x="426.8" y="39.9" class="st3" width="3.6" height="9"/>
</g>
<g>
	<rect x="442.1" y="39.9" class="st3" width="3.6" height="9"/>
	<rect x="450.1" y="39.9" class="st3" width="3.6" height="9"/>
	<rect x="458" y="39.9" class="st3" width="3.6" height="9"/>
	<rect x="466" y="39.9" class="st3" width="3.6" height="9"/>
</g>
<g>
	<rect x="481.3" y="39.9" class="st3" width="3.6" height="9"/>
	<rect x="489.2" y="39.9" class="st3" width="3.6" height="9"/>
	<rect x="497.2" y="39.9" class="st3" width="3.6" height="9"/>
	<rect x="505.2" y="39.9" class="st3" width="3.6" height="9"/>
</g>
<g>
	<rect x="520.4" y="39.9" class="st3" width="3.6" height="9"/>
	<rect x="528.4" y="39.9" class="st3" width="3.6" height="9"/>
	<rect x="536.3" y="39.9" class="st3" width="3.6" height="9"/>
	<rect x="544.3" y="39.9" class="st3" width="3.6" height="9"/>
</g>
<g>
	<rect x="559.6" y="39.9" class="st3" width="3.6" height="9"/>
	<rect x="567.5" y="39.9" class="st3" width="3.6" height="9"/>
	<rect x="575.5" y="39.9" class="st3" width="3.6" height="9"/>
	<rect x="583.5" y="39.9" class="st3" width="3.6" height="9"/>
</g>
<g>
	<rect x="598.8" y="39.9" class="st3" width="3.6" height="9"/>
	<rect x="606.7" y="39.9" class="st3" width="3.6" height="9"/>
	<rect x="614.7" y="39.9" class="st3" width="3.6" height="9"/>
	<rect x="622.6" y="39.9" class="st3" width="3.6" height="9"/>
</g>
<g>
	<rect x="637.9" y="39.9" class="st3" width="3.6" height="9"/>
	<rect x="645.9" y="39.9" class="st3" width="3.6" height="9"/>
	<rect x="653.8" y="39.9" class="st3" width="3.6" height="9"/>
	<rect x="661.8" y="39.9" class="st3" width="3.6" height="9"/>
</g>
<g>
	<rect x="677.1" y="39.9" class="st3" width="3.6" height="9"/>
	<rect x="685" y="39.9" class="st3" width="3.6" height="9"/>
	<rect x="693" y="39.9" class="st3" width="3.6" height="9"/>
	<rect x="700.9" y="39.9" class="st3" width="3.6" height="9"/>
</g>
<g>
	<rect x="716.2" y="39.9" class="st3" width="3.6" height="9"/>
	<rect x="724.2" y="39.9" class="st3" width="3.6" height="9"/>
	<rect x="732.1" y="39.9" class="st3" width="3.6" height="9"/>
	<rect x="740.1" y="39.9" class="st3" width="3.6" height="9"/>
</g>
<g>
	<rect x="755.4" y="39.9" class="st3" width="3.6" height="9"/>
	<rect x="763.3" y="39.9" class="st3" width="3.6" height="9"/>
	<rect x="771.3" y="39.9" class="st3" width="3.6" height="9"/>
	<rect x="779.2" y="39.9" class="st3" width="3.6" height="9"/>
</g>
<g>
	<rect x="794.5" y="39.9" class="st3" width="3.6" height="9"/>
	<rect x="802.5" y="39.9" class="st3" width="3.6" height="9"/>
	<rect x="810.4" y="39.9" class="st3" width="3.6" height="9"/>
	<rect x="818.4" y="39.9" class="st3" width="3.6" height="9"/>
</g>
<g>
	<rect x="833.7" y="39.9" class="st3" width="3.6" height="9"/>
	<rect x="841.6" y="39.9" class="st3" width="3.6" height="9"/>
	<rect x="849.6" y="39.9" class="st3" width="3.6" height="9"/>
	<rect x="857.5" y="39.9" class="st3" width="3.6" height="9"/>
</g>
<g>
	<rect x="89.8" y="453.8" class="st3" width="3.6" height="9"/>
	<rect x="97.7" y="453.8" class="st3" width="3.6" height="9"/>
	<rect x="105.7" y="453.8" class="st3" width="3.6" height="9"/>
	<rect x="113.6" y="453.8" class="st3" width="3.6" height="9"/>
</g>
<g>
	<rect x="128.9" y="453.8" class="st3" width="3.6" height="9"/>
	<rect x="136.9" y="453.8" class="st3" width="3.6" height="9"/>
	<rect x="144.8" y="453.8" class="st3" width="3.6" height="9"/>
	<rect x="152.8" y="453.8" class="st3" width="3.6" height="9"/>
</g>
<g>
	<rect x="168.1" y="453.8" class="st3" width="3.6" height="9"/>
	<rect x="176" y="453.8" class="st3" width="3.6" height="9"/>
	<rect x="184" y="453.8" class="st3" width="3.6" height="9"/>
	<rect x="191.9" y="453.8" class="st3" width="3.6" height="9"/>
</g>
<g>
	<rect x="207.2" y="453.8" class="st3" width="3.6" height="9"/>
	<rect x="215.2" y="453.8" class="st3" width="3.6" height="9"/>
	<rect x="223.1" y="453.8" class="st3" width="3.6" height="9"/>
	<rect x="231.1" y="453.8" class="st3" width="3.6" height="9"/>
</g>
<g>
	<rect x="246.4" y="453.8" class="st3" width="3.6" height="9"/>
	<rect x="254.3" y="453.8" class="st3" width="3.6" height="9"/>
	<rect x="262.3" y="453.8" class="st3" width="3.6" height="9"/>
	<rect x="270.2" y="453.8" class="st3" width="3.6" height="9"/>
</g>
<g>
	<rect x="285.5" y="453.8" class="st3" width="3.6" height="9"/>
	<rect x="293.5" y="453.8" class="st3" width="3.6" height="9"/>
	<rect x="301.4" y="453.8" class="st3" width="3.6" height="9"/>
	<rect x="309.4" y="453.8" class="st3" width="3.6" height="9"/>
</g>
<g>
	<rect x="324.7" y="453.8" class="st3" width="3.6" height="9"/>
	<rect x="332.6" y="453.8" class="st3" width="3.6" height="9"/>
	<rect x="340.6" y="453.8" class="st3" width="3.6" height="9"/>
	<rect x="348.5" y="453.8" class="st3" width="3.6" height="9"/>
</g>
<g>
	<rect x="363.8" y="453.8" class="st3" width="3.6" height="9"/>
	<rect x="371.8" y="453.8" class="st3" width="3.6" height="9"/>
	<rect x="379.7" y="453.8" class="st3" width="3.6" height="9"/>
	<rect x="387.7" y="453.8" class="st3" width="3.6" height="9"/>
</g>
<g>
	<rect x="403" y="453.8" class="st3" width="3.6" height="9"/>
	<rect x="410.9" y="453.8" class="st3" width="3.6" height="9"/>
	<rect x="418.9" y="453.8" class="st3" width="3.6" height="9"/>
	<rect x="426.8" y="453.8" class="st3" width="3.6" height="9"/>
</g>
<g>
	<rect x="442.1" y="453.8" class="st3" width="3.6" height="9"/>
	<rect x="450.1" y="453.8" class="st3" width="3.6" height="9"/>
	<rect x="458" y="453.8" class="st3" width="3.6" height="9"/>
	<rect x="466" y="453.8" class="st3" width="3.6" height="9"/>
</g>
<g>
	<rect x="481.3" y="453.8" class="st3" width="3.6" height="9"/>
	<rect x="489.2" y="453.8" class="st3" width="3.6" height="9"/>
	<rect x="497.2" y="453.8" class="st3" width="3.6" height="9"/>
	<rect x="505.2" y="453.8" class="st3" width="3.6" height="9"/>
</g>
<g>
	<rect x="520.4" y="453.8" class="st3" width="3.6" height="9"/>
	<rect x="528.4" y="453.8" class="st3" width="3.6" height="9"/>
	<rect x="536.3" y="453.8" class="st3" width="3.6" height="9"/>
	<rect x="544.3" y="453.8" class="st3" width="3.6" height="9"/>
</g>
<g>
	<rect x="559.6" y="453.8" class="st3" width="3.6" height="9"/>
	<rect x="567.5" y="453.8" class="st3" width="3.6" height="9"/>
	<rect x="575.5" y="453.8" class="st3" width="3.6" height="9"/>
	<rect x="583.5" y="453.8" class="st3" width="3.6" height="9"/>
</g>
<g>
	<rect x="598.8" y="453.8" class="st3" width="3.6" height="9"/>
	<rect x="606.7" y="453.8" class="st3" width="3.6" height="9"/>
	<rect x="614.7" y="453.8" class="st3" width="3.6" height="9"/>
	<rect x="622.6" y="453.8" class="st3" width="3.6" height="9"/>
</g>
<g>
	<rect x="637.9" y="453.8" class="st3" width="3.6" height="9"/>
	<rect x="645.9" y="453.8" class="st3" width="3.6" height="9"/>
	<rect x="653.8" y="453.8" class="st3" width="3.6" height="9"/>
	<rect x="661.8" y="453.8" class="st3" width="3.6" height="9"/>
</g>
<g>
	<rect x="677.1" y="453.8" class="st3" width="3.6" height="9"/>
	<rect x="685" y="453.8" class="st3" width="3.6" height="9"/>
	<rect x="693" y="453.8" class="st3" width="3.6" height="9"/>
	<rect x="700.9" y="453.8" class="st3" width="3.6" height="9"/>
</g>
<g>
	<rect x="716.2" y="453.8" class="st3" width="3.6" height="9"/>
	<rect x="724.2" y="453.8" class="st3" width="3.6" height="9"/>
	<rect x="732.1" y="453.8" class="st3" width="3.6" height="9"/>
	<rect x="740.1" y="453.8" class="st3" width="3.6" height="9"/>
</g>
<g>
	<rect x="755.4" y="453.8" class="st3" width="3.6" height="9"/>
	<rect x="763.3" y="453.8" class="st3" width="3.6" height="9"/>
	<rect x="771.3" y="453.8" class="st3" width="3.6" height="9"/>
	<rect x="779.2" y="453.8" class="st3" width="3.6" height="9"/>
</g>
<g>
	<rect x="794.5" y="453.8" class="st3" width="3.6" height="9"/>
	<rect x="802.5" y="453.8" class="st3" width="3.6" height="9"/>
	<rect x="810.4" y="453.8" class="st3" width="3.6" height="9"/>
	<rect x="818.4" y="453.8" class="st3" width="3.6" height="9"/>
</g>
<g>
	<rect x="833.7" y="453.8" class="st3" width="3.6" height="9"/>
	<rect x="841.6" y="453.8" class="st3" width="3.6" height="9"/>
	<rect x="849.6" y="453.8" class="st3" width="3.6" height="9"/>
	<rect x="857.5" y="453.8" class="st3" width="3.6" height="9"/>
</g>
<g>
	<rect x="89.8" y="303.7" class="st3" width="3.6" height="9"/>
	<rect x="97.7" y="303.7" class="st3" width="3.6" height="9"/>
	<rect x="105.7" y="303.7" class="st3" width="3.6" height="9"/>
	<rect x="113.6" y="303.7" class="st3" width="3.6" height="9"/>
</g>
<g>
	<rect x="128.9" y="303.7" class="st3" width="3.6" height="9"/>
	<rect x="136.9" y="303.7" class="st3" width="3.6" height="9"/>
	<rect x="144.8" y="303.7" class="st3" width="3.6" height="9"/>
	<rect x="152.8" y="303.7" class="st3" width="3.6" height="9"/>
</g>
<g>
	<rect x="168.1" y="303.7" class="st3" width="3.6" height="9"/>
	<rect x="176" y="303.7" class="st3" width="3.6" height="9"/>
	<rect x="184" y="303.7" class="st3" width="3.6" height="9"/>
	<rect x="191.9" y="303.7" class="st3" width="3.6" height="9"/>
</g>
<g>
	<rect x="207.2" y="303.7" class="st3" width="3.6" height="9"/>
	<rect x="215.2" y="303.7" class="st3" width="3.6" height="9"/>
	<rect x="223.1" y="303.7" class="st3" width="3.6" height="9"/>
	<rect x="231.1" y="303.7" class="st3" width="3.6" height="9"/>
</g>
<g>
	<rect x="246.4" y="303.7" class="st3" width="3.6" height="9"/>
	<rect x="254.3" y="303.7" class="st3" width="3.6" height="9"/>
	<rect x="262.3" y="303.7" class="st3" width="3.6" height="9"/>
	<rect x="270.2" y="303.7" class="st3" width="3.6" height="9"/>
</g>
<g>
	<rect x="285.5" y="303.7" class="st3" width="3.6" height="9"/>
	<rect x="293.5" y="303.7" class="st3" width="3.6" height="9"/>
	<rect x="301.4" y="303.7" class="st3" width="3.6" height="9"/>
	<rect x="309.4" y="303.7" class="st3" width="3.6" height="9"/>
</g>
<g>
	<rect x="324.7" y="303.7" class="st3" width="3.6" height="9"/>
	<rect x="332.6" y="303.7" class="st3" width="3.6" height="9"/>
	<rect x="340.6" y="303.7" class="st3" width="3.6" height="9"/>
	<rect x="348.5" y="303.7" class="st3" width="3.6" height="9"/>
</g>
<g>
	<rect x="363.8" y="303.7" class="st3" width="3.6" height="9"/>
	<rect x="371.8" y="303.7" class="st3" width="3.6" height="9"/>
	<rect x="379.7" y="303.7" class="st3" width="3.6" height="9"/>
	<rect x="387.7" y="303.7" class="st3" width="3.6" height="9"/>
</g>
<g>
	<rect x="403" y="303.7" class="st3" width="3.6" height="9"/>
	<rect x="410.9" y="303.7" class="st3" width="3.6" height="9"/>
	<rect x="418.9" y="303.7" class="st3" width="3.6" height="9"/>
	<rect x="426.8" y="303.7" class="st3" width="3.6" height="9"/>
</g>
<g>
	<rect x="442.1" y="303.7" class="st3" width="3.6" height="9"/>
	<rect x="450.1" y="303.7" class="st3" width="3.6" height="9"/>
	<rect x="458" y="303.7" class="st3" width="3.6" height="9"/>
	<rect x="466" y="303.7" class="st3" width="3.6" height="9"/>
</g>
<g>
	<rect x="481.3" y="303.7" class="st3" width="3.6" height="9"/>
	<rect x="489.2" y="303.7" class="st3" width="3.6" height="9"/>
	<rect x="497.2" y="303.7" class="st3" width="3.6" height="9"/>
	<rect x="505.2" y="303.7" class="st3" width="3.6" height="9"/>
</g>
<g>
	<rect x="520.4" y="303.7" class="st3" width="3.6" height="9"/>
	<rect x="528.4" y="303.7" class="st3" width="3.6" height="9"/>
	<rect x="536.3" y="303.7" class="st3" width="3.6" height="9"/>
	<rect x="544.3" y="303.7" class="st3" width="3.6" height="9"/>
</g>
<g>
	<rect x="559.6" y="303.7" class="st3" width="3.6" height="9"/>
	<rect x="567.5" y="303.7" class="st3" width="3.6" height="9"/>
	<rect x="575.5" y="303.7" class="st3" width="3.6" height="9"/>
	<rect x="583.5" y="303.7" class="st3" width="3.6" height="9"/>
</g>
<g>
	<rect x="598.8" y="303.7" class="st3" width="3.6" height="9"/>
	<rect x="606.7" y="303.7" class="st3" width="3.6" height="9"/>
	<rect x="614.7" y="303.7" class="st3" width="3.6" height="9"/>
	<rect x="622.6" y="303.7" class="st3" width="3.6" height="9"/>
</g>
<g>
	<rect x="637.9" y="303.7" class="st3" width="3.6" height="9"/>
	<rect x="645.9" y="303.7" class="st3" width="3.6" height="9"/>
	<rect x="653.8" y="303.7" class="st3" width="3.6" height="9"/>
	<rect x="661.8" y="303.7" class="st3" width="3.6" height="9"/>
</g>
<g>
	<rect x="677.1" y="303.7" class="st3" width="3.6" height="9"/>
	<rect x="685" y="303.7" class="st3" width="3.6" height="9"/>
	<rect x="693" y="303.7" class="st3" width="3.6" height="9"/>
	<rect x="700.9" y="303.7" class="st3" width="3.6" height="9"/>
</g>
<g>
	<rect x="716.2" y="303.7" class="st3" width="3.6" height="9"/>
	<rect x="724.2" y="303.7" class="st3" width="3.6" height="9"/>
	<rect x="732.1" y="303.7" class="st3" width="3.6" height="9"/>
	<rect x="740.1" y="303.7" class="st3" width="3.6" height="9"/>
</g>
<g>
	<rect x="755.4" y="303.7" class="st3" width="3.6" height="9"/>
	<rect x="763.3" y="303.7" class="st3" width="3.6" height="9"/>
	<rect x="771.3" y="303.7" class="st3" width="3.6" height="9"/>
	<rect x="779.2" y="303.7" class="st3" width="3.6" height="9"/>
</g>
<g>
	<rect x="794.5" y="303.7" class="st3" width="3.6" height="9"/>
	<rect x="802.5" y="303.7" class="st3" width="3.6" height="9"/>
	<rect x="810.4" y="303.7" class="st3" width="3.6" height="9"/>
	<rect x="818.4" y="303.7" class="st3" width="3.6" height="9"/>
</g>
<g>
	<rect x="833.7" y="303.7" class="st3" width="3.6" height="9"/>
	<rect x="841.6" y="303.7" class="st3" width="3.6" height="9"/>
	<rect x="849.6" y="303.7" class="st3" width="3.6" height="9"/>
	<rect x="857.5" y="303.7" class="st3" width="3.6" height="9"/>
</g>
<g>
	<rect x="89.8" y="194.9" class="st3" width="3.6" height="9"/>
	<rect x="97.7" y="194.9" class="st3" width="3.6" height="9"/>
	<rect x="105.7" y="194.9" class="st3" width="3.6" height="9"/>
	<rect x="113.6" y="194.9" class="st3" width="3.6" height="9"/>
</g>
<g>
	<rect x="128.9" y="194.9" class="st3" width="3.6" height="9"/>
	<rect x="136.9" y="194.9" class="st3" width="3.6" height="9"/>
	<rect x="144.8" y="194.9" class="st3" width="3.6" height="9"/>
	<rect x="152.8" y="194.9" class="st3" width="3.6" height="9"/>
</g>
<g>
	<rect x="168.1" y="194.9" class="st3" width="3.6" height="9"/>
	<rect x="176" y="194.9" class="st3" width="3.6" height="9"/>
	<rect x="184" y="194.9" class="st3" width="3.6" height="9"/>
	<rect x="191.9" y="194.9" class="st3" width="3.6" height="9"/>
</g>
<g>
	<rect x="207.2" y="194.9" class="st3" width="3.6" height="9"/>
	<rect x="215.2" y="194.9" class="st3" width="3.6" height="9"/>
	<rect x="223.1" y="194.9" class="st3" width="3.6" height="9"/>
	<rect x="231.1" y="194.9" class="st3" width="3.6" height="9"/>
</g>
<g>
	<rect x="246.4" y="194.9" class="st3" width="3.6" height="9"/>
	<rect x="254.3" y="194.9" class="st3" width="3.6" height="9"/>
	<rect x="262.3" y="194.9" class="st3" width="3.6" height="9"/>
	<rect x="270.2" y="194.9" class="st3" width="3.6" height="9"/>
</g>
<g>
	<rect x="285.5" y="194.9" class="st3" width="3.6" height="9"/>
	<rect x="293.5" y="194.9" class="st3" width="3.6" height="9"/>
	<rect x="301.4" y="194.9" class="st3" width="3.6" height="9"/>
	<rect x="309.4" y="194.9" class="st3" width="3.6" height="9"/>
</g>
<g>
	<rect x="324.7" y="194.9" class="st3" width="3.6" height="9"/>
	<rect x="332.6" y="194.9" class="st3" width="3.6" height="9"/>
	<rect x="340.6" y="194.9" class="st3" width="3.6" height="9"/>
	<rect x="348.5" y="194.9" class="st3" width="3.6" height="9"/>
</g>
<g>
	<rect x="363.8" y="194.9" class="st3" width="3.6" height="9"/>
	<rect x="371.8" y="194.9" class="st3" width="3.6" height="9"/>
	<rect x="379.7" y="194.9" class="st3" width="3.6" height="9"/>
	<rect x="387.7" y="194.9" class="st3" width="3.6" height="9"/>
</g>
<g>
	<rect x="403" y="194.9" class="st3" width="3.6" height="9"/>
	<rect x="410.9" y="194.9" class="st3" width="3.6" height="9"/>
	<rect x="418.9" y="194.9" class="st3" width="3.6" height="9"/>
	<rect x="426.8" y="194.9" class="st3" width="3.6" height="9"/>
</g>
<g>
	<rect x="442.1" y="194.9" class="st3" width="3.6" height="9"/>
	<rect x="450.1" y="194.9" class="st3" width="3.6" height="9"/>
	<rect x="458" y="194.9" class="st3" width="3.6" height="9"/>
	<rect x="466" y="194.9" class="st3" width="3.6" height="9"/>
</g>
<g>
	<rect x="481.3" y="194.9" class="st3" width="3.6" height="9"/>
	<rect x="489.2" y="194.9" class="st3" width="3.6" height="9"/>
	<rect x="497.2" y="194.9" class="st3" width="3.6" height="9"/>
	<rect x="505.2" y="194.9" class="st3" width="3.6" height="9"/>
</g>
<g>
	<rect x="520.4" y="194.9" class="st3" width="3.6" height="9"/>
	<rect x="528.4" y="194.9" class="st3" width="3.6" height="9"/>
	<rect x="536.3" y="194.9" class="st3" width="3.6" height="9"/>
	<rect x="544.3" y="194.9" class="st3" width="3.6" height="9"/>
</g>
<g>
	<rect x="559.6" y="194.9" class="st3" width="3.6" height="9"/>
	<rect x="567.5" y="194.9" class="st3" width="3.6" height="9"/>
	<rect x="575.5" y="194.9" class="st3" width="3.6" height="9"/>
	<rect x="583.5" y="194.9" class="st3" width="3.6" height="9"/>
</g>
<g>
	<rect x="598.8" y="194.9" class="st3" width="3.6" height="9"/>
	<rect x="606.7" y="194.9" class="st3" width="3.6" height="9"/>
	<rect x="614.7" y="194.9" class="st3" width="3.6" height="9"/>
	<rect x="622.6" y="194.9" class="st3" width="3.6" height="9"/>
</g>
<g>
	<rect x="637.9" y="194.9" class="st3" width="3.6" height="9"/>
	<rect x="645.9" y="194.9" class="st3" width="3.6" height="9"/>
	<rect x="653.8" y="194.9" class="st3" width="3.6" height="9"/>
	<rect x="661.8" y="194.9" class="st3" width="3.6" height="9"/>
</g>
<g>
	<rect x="677.1" y="194.9" class="st3" width="3.6" height="9"/>
	<rect x="685" y="194.9" class="st3" width="3.6" height="9"/>
	<rect x="693" y="194.9" class="st3" width="3.6" height="9"/>
	<rect x="700.9" y="194.9" class="st3" width="3.6" height="9"/>
</g>
<g>
	<rect x="716.2" y="194.9" class="st3" width="3.6" height="9"/>
	<rect x="724.2" y="194.9" class="st3" width="3.6" height="9"/>
	<rect x="732.1" y="194.9" class="st3" width="3.6" height="9"/>
	<rect x="740.1" y="194.9" class="st3" width="3.6" height="9"/>
</g>
<g>
	<rect x="755.4" y="194.9" class="st3" width="3.6" height="9"/>
	<rect x="763.3" y="194.9" class="st3" width="3.6" height="9"/>
	<rect x="771.3" y="194.9" class="st3" width="3.6" height="9"/>
	<rect x="779.2" y="194.9" class="st3" width="3.6" height="9"/>
</g>
<g>
	<rect x="794.5" y="194.9" class="st3" width="3.6" height="9"/>
	<rect x="802.5" y="194.9" class="st3" width="3.6" height="9"/>
	<rect x="810.4" y="194.9" class="st3" width="3.6" height="9"/>
	<rect x="818.4" y="194.9" class="st3" width="3.6" height="9"/>
</g>
<g>
	<rect x="833.7" y="194.9" class="st3" width="3.6" height="9"/>
	<rect x="841.6" y="194.9" class="st3" width="3.6" height="9"/>
	<rect x="849.6" y="194.9" class="st3" width="3.6" height="9"/>
	<rect x="857.5" y="194.9" class="st3" width="3.6" height="9"/>
</g>
<g>
	<g>
		<g>
			<defs>
				<rect id="SVGID_2_" x="6.3" y="38.6" width="79.7" height="424.2"/>
			</defs>
			<clipPath id="SVGID_3_">
				<use xlink:href="#SVGID_2_"  style="overflow:visible;"/>
			</clipPath>
			<g class="st4">
				<g>
					<polygon class="st5" points="-45.5,87.5 103.9,-63.4 106.6,-60.6 -42.7,90.3 					"/>
					<polygon class="st5" points="-45.5,97.4 103.9,-53.5 106.6,-50.7 -42.7,100.2 					"/>
					<polygon class="st5" points="-45.5,107.3 103.8,-43.6 106.6,-40.8 -42.7,110.2 					"/>
					<polygon class="st5" points="-45.5,117.3 103.9,-33.6 106.7,-30.8 -42.7,120.1 					"/>
					<polygon class="st5" points="-45.5,127.2 103.9,-23.7 106.6,-20.9 -42.7,130 					"/>
					<polygon class="st5" points="-45.5,137.2 103.8,-13.7 106.6,-10.9 -42.7,140 					"/>
					<polygon class="st5" points="-45.5,147.1 103.9,-3.8 106.7,-1 -42.7,149.9 					"/>
					<polygon class="st5" points="-45.5,157 103.9,6.1 106.6,9 -42.7,159.9 					"/>
					<polygon class="st5" points="-45.5,167 103.8,16.1 106.6,18.9 -42.7,169.8 					"/>
					<polygon class="st5" points="-45.5,176.9 103.9,26.1 106.6,28.9 -42.7,179.7 					"/>
					<polygon class="st5" points="-45.5,186.9 103.8,36 106.6,38.8 -42.7,189.7 					"/>
					<polygon class="st5" points="-45.5,196.8 103.8,45.9 106.6,48.7 -42.7,199.6 					"/>
					<polygon class="st5" points="-45.5,206.8 103.9,55.9 106.7,58.7 -42.7,209.6 					"/>
					<polygon class="st5" points="-45.5,216.7 103.8,65.8 106.6,68.6 -42.7,219.5 					"/>
					<polygon class="st5" points="-45.5,226.7 103.9,75.8 106.7,78.6 -42.7,229.5 					"/>
					<polygon class="st5" points="-45.5,236.6 103.9,85.7 106.7,88.5 -42.7,239.4 					"/>
					<polygon class="st5" points="-45.5,246.6 103.8,95.6 106.6,98.4 -42.7,249.4 					"/>
					<polygon class="st5" points="-45.5,256.5 103.9,105.6 106.6,108.4 -42.7,259.3 					"/>
					<polygon class="st5" points="-45.5,266.4 103.9,115.5 106.6,118.3 -42.7,269.2 					"/>
					<polygon class="st5" points="-45.5,276.4 103.8,125.5 106.6,128.3 -42.7,279.2 					"/>
					<polygon class="st5" points="-45.5,286.3 103.9,135.4 106.6,138.2 -42.7,289.1 					"/>
					<polygon class="st5" points="-45.5,296.2 103.9,145.3 106.6,148.1 -42.7,299 					"/>
					<polygon class="st5" points="-45.5,306.2 103.8,155.3 106.6,158.1 -42.7,309 					"/>
					<polygon class="st5" points="-45.5,316.1 103.9,165.2 106.6,168 -42.7,318.9 					"/>
					<polygon class="st5" points="-45.5,326.1 103.9,175.2 106.6,178 -42.7,328.9 					"/>
					<polygon class="st5" points="-45.5,336.1 103.8,185.1 106.6,187.9 -42.7,338.9 					"/>
					<polygon class="st5" points="-45.5,346 103.9,195.1 106.7,197.9 -42.7,348.8 					"/>
					<polygon class="st5" points="-45.5,355.9 103.9,205 106.6,207.8 -42.7,358.7 					"/>
					<polygon class="st5" points="-45.5,365.8 103.9,214.9 106.6,217.7 -42.7,368.6 					"/>
					<polygon class="st5" points="-45.5,375.8 103.9,224.9 106.7,227.7 -42.7,378.6 					"/>
					<polygon class="st5" points="-45.5,385.7 103.8,234.8 106.6,237.6 -42.7,388.5 					"/>
					<polygon class="st5" points="-45.5,395.7 103.8,244.8 106.6,247.6 -42.7,398.5 					"/>
					<polygon class="st5" points="-45.5,405.6 103.9,254.7 106.6,257.5 -42.7,408.4 					"/>
					<polygon class="st5" points="-45.5,415.6 103.8,264.7 106.6,267.5 -42.7,418.4 					"/>
					<polygon class="st5" points="-45.5,425.5 103.9,274.6 106.6,277.4 -42.7,428.3 					"/>
					<polygon class="st5" points="-45.5,435.5 103.9,284.6 106.7,287.4 -42.7,438.3 					"/>
					<polygon class="st5" points="-45.5,445.4 103.8,294.5 106.6,297.3 -42.7,448.2 					"/>
					<polygon class="st5" points="-45.5,455.3 103.9,304.5 106.7,307.3 -42.7,458.1 					"/>
					<polygon class="st5" points="-45.5,465.3 103.9,314.4 106.7,317.2 -42.7,468.1 					"/>
					<polygon class="st5" points="-45.5,475.2 103.8,324.3 106.6,327.1 -42.7,478 					"/>
					<polygon class="st5" points="-45.5,485.2 103.9,334.3 106.7,337.1 -42.7,488 					"/>
					<polygon class="st5" points="-45.5,495.1 103.9,344.2 106.7,347 -42.7,497.9 					"/>
					<polygon class="st5" points="-45.5,505 103.9,354.2 106.7,357 -42.7,507.9 					"/>
					<polygon class="st5" points="-45.5,515 103.8,364.1 106.6,366.9 -42.7,517.8 					"/>
					<polygon class="st5" points="-45.5,524.9 103.9,374.1 106.7,376.9 -42.7,527.7 					"/>
					<polygon class="st5" points="-45.5,534.8 103.9,383.9 106.6,386.8 -42.7,537.7 					"/>
					<polygon class="st5" points="-45.5,544.8 103.8,393.9 106.6,396.7 -42.7,547.6 					"/>
					<polygon class="st5" points="-45.5,554.8 103.9,403.9 106.7,406.7 -42.7,557.6 					"/>
					<polygon class="st5" points="-45.5,564.7 103.9,413.8 106.7,416.6 -42.7,567.5 					"/>
					<polygon class="st5" points="-45.5,574.6 103.8,423.7 106.6,426.5 -42.7,577.5 					"/>
					<polygon class="st5" points="-45.5,584.6 103.9,433.7 106.7,436.5 -42.7,587.4 					"/>
					<polygon class="st5" points="-45.5,594.5 103.9,443.7 106.7,446.5 -42.7,597.3 					"/>
					<polygon class="st5" points="-45.5,604.5 103.8,453.6 106.6,456.4 -42.7,607.3 					"/>
				</g>
			</g>
		</g>
	</g>
</g>
<g>
	<g>
		<g>
			<defs>
				<rect id="SVGID_4_" x="864.1" y="38.6" width="79.7" height="424.2"/>
			</defs>
			<clipPath id="SVGID_5_">
				<use xlink:href="#SVGID_4_"  style="overflow:visible;"/>
			</clipPath>
			<g class="st6">
				<g>
					<polygon class="st5" points="812.3,87.4 961.7,-63.5 964.5,-60.7 815.1,90.2 					"/>
					<polygon class="st5" points="812.3,97.5 961.6,-53.4 964.4,-50.6 815.1,100.3 					"/>
					<polygon class="st5" points="812.3,107.4 961.6,-43.6 964.4,-40.7 815.1,110.2 					"/>
					<polygon class="st5" points="812.2,117.2 961.6,-33.6 964.4,-30.8 815,120 					"/>
					<polygon class="st5" points="812.3,127.2 961.6,-23.7 964.4,-20.9 815.1,130 					"/>
					<polygon class="st5" points="812.3,137.2 961.6,-13.7 964.4,-10.9 815.1,140 					"/>
					<polygon class="st5" points="812.2,147.1 961.6,-3.8 964.4,-1 815,149.9 					"/>
					<polygon class="st5" points="812.3,157 961.6,6.1 964.4,9 815,159.8 					"/>
					<polygon class="st5" points="812.3,167 961.6,16.2 964.4,19 815.1,169.9 					"/>
					<polygon class="st5" points="812.3,177 961.6,26.1 964.4,28.9 815.1,179.8 					"/>
					<polygon class="st5" points="812.3,186.9 961.6,36 964.4,38.8 815.1,189.7 					"/>
					<polygon class="st5" points="812.3,196.9 961.6,45.9 964.4,48.7 815.1,199.7 					"/>
					<polygon class="st5" points="812.2,206.7 961.6,55.8 964.4,58.7 815,209.5 					"/>
					<polygon class="st5" points="812.3,216.7 961.6,65.8 964.4,68.6 815.1,219.5 					"/>
					<polygon class="st5" points="812.2,226.6 961.6,75.7 964.4,78.5 815,229.4 					"/>
					<polygon class="st5" points="812.2,236.5 961.6,85.7 964.4,88.5 815,239.3 					"/>
					<polygon class="st5" points="812.3,246.6 961.6,95.7 964.4,98.5 815.1,249.4 					"/>
					<polygon class="st5" points="812.3,256.5 961.6,105.6 964.4,108.4 815.1,259.3 					"/>
					<polygon class="st5" points="812.3,266.4 961.6,115.5 964.4,118.3 815.1,269.2 					"/>
					<polygon class="st5" points="812.3,276.4 961.6,125.5 964.4,128.3 815.1,279.2 					"/>
					<polygon class="st5" points="812.3,286.3 961.6,135.4 964.4,138.2 815.1,289.1 					"/>
					<polygon class="st5" points="812.3,296.2 961.6,145.3 964.4,148.1 815.1,299 					"/>
					<polygon class="st5" points="812.3,306.2 961.6,155.3 964.4,158.1 815.1,309 					"/>
					<polygon class="st5" points="812.3,316.1 961.6,165.2 964.4,168 815.1,318.9 					"/>
					<polygon class="st5" points="812.3,326 961.6,175.1 964.4,178 815,328.9 					"/>
					<polygon class="st5" points="812.3,336.1 961.6,185.1 964.4,188 815.1,338.9 					"/>
					<polygon class="st5" points="812.3,345.9 961.6,195 964.4,197.8 815,348.7 					"/>
					<polygon class="st5" points="812.3,355.9 961.6,205 964.4,207.8 815.1,358.7 					"/>
					<polygon class="st5" points="812.3,365.8 961.6,214.9 964.4,217.8 815.1,368.6 					"/>
					<polygon class="st5" points="812.3,375.7 961.6,224.9 964.4,227.7 815,378.5 					"/>
					<polygon class="st5" points="812.3,385.7 961.6,234.8 964.4,237.6 815.1,388.6 					"/>
					<polygon class="st5" points="812.3,395.7 961.6,244.8 964.4,247.6 815.1,398.5 					"/>
					<polygon class="st5" points="812.3,405.6 961.6,254.7 964.4,257.5 815.1,408.4 					"/>
					<polygon class="st5" points="812.3,415.6 961.6,264.7 964.4,267.5 815.1,418.4 					"/>
					<polygon class="st5" points="812.3,425.5 961.6,274.6 964.4,277.4 815.1,428.3 					"/>
					<polygon class="st5" points="812.3,435.4 961.6,284.5 964.4,287.3 815,438.2 					"/>
					<polygon class="st5" points="812.3,445.5 961.6,294.5 964.4,297.3 815.1,448.3 					"/>
					<polygon class="st5" points="812.3,455.3 961.6,304.4 964.4,307.2 815,458.1 					"/>
					<polygon class="st5" points="812.3,465.2 961.6,314.3 964.4,317.1 815,468 					"/>
					<polygon class="st5" points="812.3,475.2 961.6,324.3 964.4,327.1 815.1,478.1 					"/>
					<polygon class="st5" points="812.3,485.1 961.6,334.2 964.4,337 815,487.9 					"/>
					<polygon class="st5" points="812.3,495 961.6,344.2 964.4,347 815,497.8 					"/>
					<polygon class="st5" points="812.3,505 961.6,354.1 964.4,356.9 815,507.8 					"/>
					<polygon class="st5" points="812.3,515.1 961.6,364.1 964.4,366.9 815.1,517.9 					"/>
					<polygon class="st5" points="812.3,524.9 961.6,374 964.4,376.8 815,527.7 					"/>
					<polygon class="st5" points="812.3,534.8 961.6,384 964.4,386.8 815.1,537.7 					"/>
					<polygon class="st5" points="812.3,544.8 961.6,393.9 964.4,396.7 815.1,547.6 					"/>
					<polygon class="st5" points="812.3,554.7 961.6,403.8 964.4,406.6 815,557.5 					"/>
					<polygon class="st5" points="812.3,564.6 961.6,413.7 964.4,416.6 815,567.4 					"/>
					<polygon class="st5" points="812.3,574.7 961.6,423.8 964.4,426.6 815.1,577.5 					"/>
					<polygon class="st5" points="812.3,584.5 961.6,433.6 964.4,436.4 815,587.3 					"/>
					<polygon class="st5" points="812.3,594.4 961.6,443.6 964.4,446.4 815,597.3 					"/>
					<polygon class="st5" points="812.3,604.5 961.6,453.6 964.4,456.4 815.1,607.3 					"/>
				</g>
			</g>
		</g>
	</g>
</g>
<g>
	<path class="st3" d="M472.4,426.1h-7.5l-0.7,4.1l0,0c1-1,2.1-1.4,3.6-1.4c3.6,0,5.6,2.8,5.6,6.2c0,3.7-3.1,6.6-6.8,6.5
		c-3.5,0-6.7-2-6.8-5.8h3.7c0.2,1.6,1.4,2.7,3,2.7c1.9,0,3.2-1.7,3.2-3.5c0-1.9-1.2-3.4-3.2-3.4c-1.3,0-2,0.5-2.8,1.5h-3.3l1.8-10.1
		h10.2L472.4,426.1L472.4,426.1z"/>
	<path class="st3" d="M481,422.7c3.6,0,6.7,2.3,6.7,9.4c0,7.3-3.1,9.5-6.7,9.5s-6.7-2.3-6.7-9.5C474.4,425,477.4,422.7,481,422.7z
		 M481,438.6c3,0,3-4.5,3-6.5c0-1.9,0-6.3-3-6.3s-3,4.5-3,6.3C478.1,434.1,478.1,438.6,481,438.6z"/>
</g>
<g>
	<path class="st3" d="M546.8,437h-7.7v-3.4L547,423h3.3v11h2.4v3h-2.4v4.2h-3.5V437L546.8,437z M546.8,427.7L546.8,427.7L542,434
		h4.8V427.7L546.8,427.7z"/>
	<path class="st3" d="M560.4,422.7c3.6,0,6.7,2.3,6.7,9.4c0,7.3-3.1,9.5-6.7,9.5c-3.6,0-6.7-2.3-6.7-9.5
		C553.7,425,556.8,422.7,560.4,422.7z M560.4,438.6c3,0,3-4.5,3-6.5c0-1.9,0-6.3-3-6.3s-3,4.5-3,6.3
		C557.4,434.1,557.4,438.6,560.4,438.6z"/>
	<path class="st3" d="M569,432.6h7.8v3.2H569V432.6z"/>
</g>
<g>
	<path class="st3" d="M372.4,432.6h7.8v3.2h-7.8V432.6z"/>
	<path class="st3" d="M389.7,437H382v-3.4l7.9-10.6h3.3v11h2.4v3h-2.4v4.2h-3.5L389.7,437L389.7,437z M389.7,427.7L389.7,427.7
		l-4.8,6.3h4.8V427.7L389.7,427.7z"/>
	<path class="st3" d="M403.3,422.7c3.6,0,6.7,2.3,6.7,9.4c0,7.3-3.1,9.5-6.7,9.5s-6.7-2.3-6.7-9.5
		C396.6,425,399.7,422.7,403.3,422.7z M403.3,438.6c3,0,3-4.5,3-6.5c0-1.9,0-6.3-3-6.3s-3,4.5-3,6.3
		C400.3,434.1,400.3,438.6,403.3,438.6z"/>
</g>
<g>
	<path class="st3" d="M621.8,430.4c1.6,0.1,3.9-0.2,3.9-2.3c0-1.5-1.2-2.4-2.6-2.4c-1.8,0-2.8,1.4-2.8,3.3h-3.5
		c0.1-3.7,2.5-6.3,6.3-6.3c2.9,0,6.1,1.8,6.1,5c0,1.7-0.9,3.3-2.5,3.7l0,0c2,0.4,3.2,2.1,3.2,4.1c0,3.8-3.2,6-6.8,6
		c-4.1,0-6.8-2.4-6.8-6.6h3.5c0.1,2,1.1,3.6,3.2,3.6c1.7,0,3-1.1,3-2.9c0-2.8-2.4-2.7-4.2-2.7L621.8,430.4L621.8,430.4z"/>
	<path class="st3" d="M637.5,422.7c3.6,0,6.7,2.3,6.7,9.4c0,7.3-3.1,9.5-6.7,9.5c-3.6,0-6.7-2.3-6.7-9.5
		C630.9,425,633.9,422.7,637.5,422.7z M637.5,438.6c3,0,3-4.5,3-6.5c0-1.9,0-6.3-3-6.3s-3,4.5-3,6.3
		C634.6,434.1,634.6,438.6,637.5,438.6z"/>
	<path class="st3" d="M646.2,432.6h7.8v3.2h-7.8V432.6z"/>
</g>
<g>
	<path class="st3" d="M293.3,432.6h7.8v3.2h-7.8V432.6z"/>
	<path class="st3" d="M308.4,430.4c1.6,0.1,3.9-0.2,3.9-2.3c0-1.5-1.2-2.4-2.6-2.4c-1.9,0-2.8,1.4-2.8,3.3h-3.5
		c0.1-3.7,2.5-6.3,6.3-6.3c2.9,0,6.1,1.8,6.1,5c0,1.7-0.9,3.3-2.5,3.7l0,0c2,0.4,3.2,2.1,3.2,4.1c0,3.8-3.2,6-6.8,6
		c-4.1,0-6.8-2.4-6.8-6.6h3.5c0.1,2,1.1,3.6,3.2,3.6c1.7,0,3-1.1,3-2.9c0-2.8-2.4-2.7-4.2-2.7L308.4,430.4L308.4,430.4z"/>
	<path class="st3" d="M324.1,422.7c3.6,0,6.7,2.3,6.7,9.4c0,7.3-3.1,9.5-6.7,9.5s-6.7-2.3-6.7-9.5
		C317.5,425,320.5,422.7,324.1,422.7z M324.1,438.6c3,0,3-4.5,3-6.5c0-1.9,0-6.3-3-6.3s-3,4.5-3,6.3
		C321.1,434.1,321.1,438.6,324.1,438.6z"/>
</g>
<g>
	<path class="st3" d="M216.6,432.6h7.8v3.2h-7.8V432.6z"/>
	<path class="st3" d="M226.8,430c-0.1-4.2,2.2-7.4,6.6-7.4c3.3,0,6.2,2.1,6.2,5.7c0,2.7-1.5,4.2-3.3,5.5s-3.9,2.3-5.3,4.2h8.6v3.2
		h-13.4c0-4.2,2.6-6,5.8-8.1c1.6-1.1,3.8-2.2,3.8-4.5c0-1.7-1.1-2.8-2.7-2.8c-2.2,0-2.9,2.3-2.9,4.2L226.8,430L226.8,430z"/>
	<path class="st3" d="M247.4,422.7c3.6,0,6.7,2.3,6.7,9.4c0,7.3-3.1,9.5-6.7,9.5s-6.7-2.3-6.7-9.5
		C240.8,425,243.9,422.7,247.4,422.7z M247.4,438.6c3,0,3-4.5,3-6.5c0-1.9,0-6.3-3-6.3s-3,4.5-3,6.3
		C244.5,434.1,244.5,438.6,247.4,438.6z"/>
</g>
<g>
	<path class="st3" d="M138.6,432.6h7.8v3.2h-7.8V432.6z"/>
	<path class="st3" d="M158,441.2h-3.7v-11.8h-4.6v-2.8c2.6,0,4.9-0.8,5.3-3.6h2.9v18.2H158z"/>
	<path class="st3" d="M169.4,422.7c3.6,0,6.7,2.3,6.7,9.4c0,7.3-3.1,9.5-6.7,9.5c-3.6,0-6.7-2.3-6.7-9.5
		C162.8,425,165.9,422.7,169.4,422.7z M169.4,438.6c3,0,3-4.5,3-6.5c0-1.9,0-6.3-3-6.3s-3,4.5-3,6.3
		C166.5,434.1,166.5,438.6,169.4,438.6z"/>
</g>
<g>
	<path class="st3" d="M694.8,430c-0.1-4.2,2.2-7.4,6.6-7.4c3.3,0,6.2,2.1,6.2,5.7c0,2.7-1.5,4.2-3.3,5.5s-3.9,2.3-5.3,4.2h8.6v3.2
		h-13.4c0-4.2,2.6-6,5.8-8.1c1.6-1.1,3.8-2.2,3.8-4.5c0-1.7-1.1-2.8-2.7-2.8c-2.2,0-2.9,2.3-2.9,4.2L694.8,430L694.8,430z"/>
	<path class="st3" d="M715.5,422.7c3.6,0,6.7,2.3,6.7,9.4c0,7.3-3.1,9.5-6.7,9.5c-3.6,0-6.7-2.3-6.7-9.5
		C708.9,425,711.9,422.7,715.5,422.7z M715.5,438.6c3,0,3-4.5,3-6.5c0-1.9,0-6.3-3-6.3s-3,4.5-3,6.3
		C712.6,434.1,712.6,438.6,715.5,438.6z"/>
	<path class="st3" d="M724.2,432.6h7.8v3.2h-7.8V432.6z"/>
</g>
<g>
	<path class="st3" d="M783.9,441.2h-3.7v-11.8h-4.6v-2.8c2.6,0,4.9-0.8,5.3-3.6h2.9L783.9,441.2L783.9,441.2z"/>
	<path class="st3" d="M795.4,422.7c3.6,0,6.7,2.3,6.7,9.4c0,7.3-3.1,9.5-6.7,9.5c-3.6,0-6.7-2.3-6.7-9.5
		C788.7,425,791.8,422.7,795.4,422.7z M795.4,438.6c3,0,3-4.5,3-6.5c0-1.9,0-6.3-3-6.3s-3,4.5-3,6.3
		C792.4,434.1,792.4,438.6,795.4,438.6z"/>
	<path class="st3" d="M804,432.6h7.8v3.2H804V432.6z"/>
</g>
<g>
	<path class="st3" d="M478,77h7.5l0.7-4.1v-0.1c-1,1-2.1,1.4-3.6,1.4c-3.6,0-5.6-2.8-5.6-6.2c0-3.7,3.1-6.6,6.8-6.6
		c3.5,0,6.7,1.9,6.8,5.8h-3.7c-0.2-1.6-1.4-2.7-3-2.7c-1.9,0-3.2,1.7-3.2,3.5c0,1.9,1.2,3.4,3.2,3.4c1.3,0,2-0.5,2.8-1.5h3.3
		L488.2,80H478V77L478,77z"/>
	<path class="st3" d="M469.4,80.4c-3.6,0-6.7-2.3-6.7-9.4c0-7.3,3.1-9.5,6.7-9.5s6.7,2.3,6.7,9.5C476,78.1,473,80.4,469.4,80.4z
		 M469.4,64.5c-3,0-3,4.4-3,6.5c0,1.9,0,6.3,3,6.3s3-4.4,3-6.3C472.3,69,472.3,64.5,469.4,64.5z"/>
</g>
<g>
	<path class="st3" d="M403.6,66.1h7.7v3.4l-7.9,10.6h-3.3v-11h-2.4v-3h2.4v-4.2h3.5V66.1L403.6,66.1z M403.6,75.4L403.6,75.4
		l4.8-6.3h-4.8V75.4L403.6,75.4z"/>
	<path class="st3" d="M390,80.4c-3.6,0-6.7-2.3-6.7-9.4c0-7.3,3.1-9.5,6.7-9.5s6.7,2.3,6.7,9.5C396.7,78.1,393.6,80.4,390,80.4z
		 M390,64.5c-3,0-3,4.4-3,6.5c0,1.9,0,6.3,3,6.3s3-4.4,3-6.3C393,69,393,64.5,390,64.5z"/>
	<path class="st3" d="M381.4,70.5h-7.8v-3.2h7.8V70.5z"/>
</g>
<g>
	<path class="st3" d="M578,70.5h-7.8v-3.2h7.8V70.5z"/>
	<path class="st3" d="M560.7,66.1h7.7v3.4l-7.9,10.6h-3.3v-11h-2.4v-3h2.4v-4.2h3.5V66.1L560.7,66.1z M560.7,75.4L560.7,75.4
		l4.8-6.3h-4.8V75.4L560.7,75.4z"/>
	<path class="st3" d="M547.1,80.4c-3.6,0-6.7-2.3-6.7-9.4c0-7.3,3.1-9.5,6.7-9.5c3.6,0,6.7,2.3,6.7,9.5
		C553.8,78.1,550.7,80.4,547.1,80.4z M547.1,64.5c-3,0-3,4.4-3,6.5c0,1.9,0,6.3,3,6.3s3-4.4,3-6.3C550.1,69,550.1,64.5,547.1,64.5z"
		/>
</g>
<g>
	<path class="st3" d="M328.6,72.7c-1.6-0.1-3.9,0.2-3.9,2.3c0,1.5,1.2,2.4,2.6,2.4c1.9,0,2.8-1.4,2.8-3.3h3.5
		c-0.1,3.7-2.5,6.3-6.3,6.3c-2.9,0-6.1-1.8-6.1-5c0-1.7,0.9-3.3,2.5-3.7v-0.1c-2-0.4-3.2-2.1-3.2-4.1c0-3.8,3.2-6,6.8-6
		c4.1,0,6.8,2.4,6.8,6.6h-3.5c-0.1-2-1.1-3.6-3.2-3.6c-1.7,0-3,1.1-3,2.9c0,2.8,2.4,2.7,4.2,2.7L328.6,72.7L328.6,72.7z"/>
	<path class="st3" d="M312.9,80.4c-3.6,0-6.7-2.3-6.7-9.4c0-7.3,3.1-9.5,6.7-9.5s6.7,2.3,6.7,9.5C319.5,78.1,316.5,80.4,312.9,80.4z
		 M312.9,64.5c-3,0-3,4.4-3,6.5c0,1.9,0,6.3,3,6.3s3-4.4,3-6.3C315.8,69,315.8,64.5,312.9,64.5z"/>
	<path class="st3" d="M304.2,70.5h-7.8v-3.2h7.8V70.5z"/>
</g>
<g>
	<path class="st3" d="M657.2,70.5h-7.8v-3.2h7.8V70.5z"/>
	<path class="st3" d="M642,72.7c-1.6-0.1-3.9,0.2-3.9,2.3c0,1.5,1.2,2.4,2.6,2.4c1.8,0,2.8-1.4,2.8-3.3h3.5
		c-0.1,3.7-2.5,6.3-6.3,6.3c-2.9,0-6.1-1.8-6.1-5c0-1.7,0.9-3.3,2.5-3.7v-0.1c-2-0.4-3.2-2.1-3.2-4.1c0-3.8,3.2-6,6.8-6
		c4.1,0,6.8,2.4,6.8,6.6H644c-0.1-2-1.1-3.6-3.2-3.6c-1.7,0-3,1.1-3,2.9c0,2.8,2.4,2.7,4.2,2.7V72.7L642,72.7z"/>
	<path class="st3" d="M626.3,80.4c-3.6,0-6.7-2.3-6.7-9.4c0-7.3,3.1-9.5,6.7-9.5c3.6,0,6.7,2.3,6.7,9.5
		C633,78.1,629.9,80.4,626.3,80.4z M626.3,64.5c-3,0-3,4.4-3,6.5c0,1.9,0,6.3,3,6.3s3-4.4,3-6.3C629.3,69,629.3,64.5,626.3,64.5z"/>
</g>
<g>
	<path class="st3" d="M733.8,70.5H726v-3.2h7.8V70.5L733.8,70.5z"/>
	<path class="st3" d="M723.7,73c0.1,4.2-2.2,7.4-6.6,7.4c-3.3,0-6.2-2.1-6.2-5.7c0-2.7,1.5-4.2,3.3-5.5s3.9-2.3,5.3-4.2h-8.6v-3.2
		h13.4c0,4.2-2.6,6-5.8,8.1c-1.6,1.1-3.8,2.2-3.8,4.4c0,1.7,1.1,2.8,2.7,2.8c2.2,0,2.9-2.3,2.9-4.2L723.7,73L723.7,73z"/>
	<path class="st3" d="M703,80.4c-3.6,0-6.7-2.3-6.7-9.4c0-7.3,3.1-9.5,6.7-9.5c3.6,0,6.7,2.3,6.7,9.5
		C709.6,78.1,706.5,80.4,703,80.4z M703,64.5c-3,0-3,4.4-3,6.5c0,1.9,0,6.3,3,6.3s3-4.4,3-6.3C705.9,69,705.9,64.5,703,64.5z"/>
</g>
<g>
	<path class="st3" d="M811.8,70.5H804v-3.2h7.8V70.5L811.8,70.5z"/>
	<path class="st3" d="M792.4,61.9h3.7v11.8h4.6v2.8c-2.6-0.1-4.9,0.8-5.3,3.6h-2.9L792.4,61.9L792.4,61.9z"/>
	<path class="st3" d="M781,80.4c-3.6,0-6.7-2.3-6.7-9.4c0-7.3,3.1-9.5,6.7-9.5c3.6,0,6.7,2.3,6.7,9.5
		C787.6,78.1,784.5,80.4,781,80.4z M781,64.5c-3,0-3,4.4-3,6.5c0,1.9,0,6.3,3,6.3s3-4.4,3-6.3C783.9,69,783.9,64.5,781,64.5z"/>
</g>
<g>
	<path class="st3" d="M255.6,73c0.1,4.2-2.2,7.4-6.6,7.4c-3.3,0-6.2-2.1-6.2-5.7c0-2.7,1.5-4.2,3.3-5.5s3.9-2.3,5.3-4.2h-8.6v-3.2
		H256c0,4.2-2.6,6-5.8,8.1c-1.6,1.1-3.8,2.2-3.8,4.4c0,1.7,1.1,2.8,2.7,2.8c2.2,0,2.9-2.3,2.9-4.2L255.6,73L255.6,73z"/>
	<path class="st3" d="M234.9,80.4c-3.6,0-6.7-2.3-6.7-9.4c0-7.3,3.1-9.5,6.7-9.5c3.6,0,6.7,2.3,6.7,9.5
		C241.5,78.1,238.5,80.4,234.9,80.4z M234.9,64.5c-3,0-3,4.4-3,6.5c0,1.9,0,6.3,3,6.3s3-4.4,3-6.3C237.8,69,237.8,64.5,234.9,64.5z"
		/>
	<path class="st3" d="M226.2,70.5h-7.8v-3.2h7.8V70.5z"/>
</g>
<g>
	<path class="st3" d="M166.5,61.9h3.7v11.8h4.6v2.8c-2.6-0.1-4.9,0.8-5.3,3.6h-2.9V61.9H166.5z"/>
	<path class="st3" d="M155,80.4c-3.6,0-6.7-2.3-6.7-9.4c0-7.3,3.1-9.5,6.7-9.5c3.6,0,6.7,2.3,6.7,9.5
		C161.7,78.1,158.6,80.4,155,80.4z M155,64.5c-3,0-3,4.4-3,6.5c0,1.9,0,6.3,3,6.3s3-4.4,3-6.3C158,69,158,64.5,155,64.5z"/>
	<path class="st3" d="M146.4,70.5h-7.8v-3.2h7.8V70.5z"/>
</g>
<g class="st7">
	<g class="st8">
		<path class="st3" d="M386.2,611.6v-0.2c-0.3,0.3-0.5,0.6-0.8,0.8s-0.5,0.3-0.9,0.4c-0.3,0.1-0.6,0.2-1,0.2c-0.5,0-0.9-0.1-1.3-0.3
			s-0.8-0.5-1.1-0.9c-0.3-0.4-0.5-0.8-0.7-1.3s-0.2-1.1-0.2-1.7c0-1.3,0.3-2.2,0.9-2.9s1.4-1,2.4-1c0.6,0,1.1,0.1,1.5,0.3
			s0.8,0.5,1.2,0.9v-3c0-0.4,0.1-0.7,0.3-0.9c0.2-0.2,0.4-0.3,0.7-0.3c0.3,0,0.5,0.1,0.7,0.3s0.3,0.5,0.3,0.9v8.9
			c0,0.4-0.1,0.7-0.3,0.9c-0.2,0.2-0.4,0.3-0.7,0.3c-0.3,0-0.5-0.1-0.7-0.3C386.3,612.2,386.2,611.9,386.2,611.6z M382.3,608.6
			c0,0.5,0.1,1,0.3,1.4s0.4,0.7,0.7,0.9c0.3,0.2,0.6,0.3,1,0.3s0.7-0.1,1-0.3s0.5-0.5,0.7-0.8c0.2-0.4,0.3-0.8,0.3-1.4
			c0-0.5-0.1-1-0.3-1.4c-0.2-0.4-0.4-0.7-0.7-0.9s-0.6-0.3-1-0.3s-0.7,0.1-1,0.3s-0.5,0.5-0.7,0.9
			C382.4,607.7,382.3,608.1,382.3,608.6z"/>
		<path class="st3" d="M395.8,609.1h-3.9c0,0.5,0.1,0.9,0.3,1.2c0.2,0.3,0.4,0.6,0.7,0.8c0.3,0.2,0.6,0.3,1,0.3c0.2,0,0.5,0,0.7-0.1
			s0.4-0.2,0.6-0.3s0.4-0.3,0.5-0.4c0.2-0.1,0.4-0.3,0.6-0.6c0.1-0.1,0.3-0.1,0.4-0.1c0.2,0,0.4,0.1,0.5,0.2
			c0.1,0.1,0.2,0.3,0.2,0.5s-0.1,0.4-0.2,0.6c-0.1,0.2-0.4,0.5-0.6,0.7c-0.3,0.2-0.7,0.4-1.1,0.6c-0.4,0.1-0.9,0.2-1.5,0.2
			c-1.3,0-2.3-0.4-3-1.1c-0.7-0.7-1.1-1.7-1.1-3c0-0.6,0.1-1.2,0.3-1.7c0.2-0.5,0.4-0.9,0.8-1.3c0.3-0.4,0.8-0.6,1.3-0.8
			s1-0.3,1.6-0.3c0.8,0,1.5,0.2,2,0.5c0.6,0.3,1,0.8,1.3,1.3s0.4,1.1,0.4,1.6s-0.2,0.8-0.4,1C396.7,609.1,396.3,609.1,395.8,609.1z
			 M391.8,608h3.6c0-0.7-0.2-1.2-0.6-1.5c-0.3-0.3-0.8-0.5-1.3-0.5s-0.9,0.2-1.2,0.5C392.1,606.8,391.9,607.3,391.8,608z"/>
		<path class="st3" d="M405.6,610.1c0,0.5-0.1,1-0.4,1.4s-0.7,0.7-1.2,0.9s-1.2,0.3-1.9,0.3c-0.7,0-1.3-0.1-1.9-0.3
			c-0.5-0.2-0.9-0.5-1.1-0.8s-0.4-0.7-0.4-1c0-0.2,0.1-0.4,0.2-0.6c0.2-0.2,0.4-0.2,0.6-0.2s0.4,0,0.5,0.2c0.1,0.1,0.2,0.3,0.3,0.4
			c0.2,0.4,0.5,0.6,0.7,0.8c0.3,0.2,0.7,0.3,1.2,0.3c0.4,0,0.7-0.1,1-0.3s0.4-0.4,0.4-0.6c0-0.3-0.1-0.6-0.4-0.8s-0.7-0.3-1.3-0.5
			c-0.7-0.2-1.3-0.3-1.7-0.5c-0.4-0.2-0.8-0.4-1-0.8c-0.3-0.3-0.4-0.7-0.4-1.1c0-0.4,0.1-0.8,0.4-1.1s0.6-0.6,1.1-0.9
			c0.5-0.2,1-0.3,1.7-0.3c0.5,0,1,0,1.4,0.2c0.4,0.1,0.8,0.3,1,0.4c0.3,0.2,0.5,0.4,0.6,0.6c0.2,0.2,0.2,0.4,0.2,0.7
			c0,0.2-0.1,0.4-0.2,0.6c-0.2,0.1-0.4,0.2-0.7,0.2c-0.2,0-0.4-0.1-0.5-0.2c-0.1-0.1-0.3-0.3-0.5-0.5s-0.3-0.4-0.5-0.5
			s-0.5-0.2-0.8-0.2c-0.4,0-0.7,0.1-0.9,0.2c-0.2,0.2-0.4,0.3-0.4,0.6c0,0.2,0.1,0.4,0.3,0.5c0.2,0.1,0.4,0.3,0.7,0.3
			c0.3,0.1,0.7,0.2,1.2,0.3c0.6,0.2,1.1,0.3,1.5,0.5s0.7,0.5,0.9,0.8C405.5,609.4,405.6,609.7,405.6,610.1z"/>
		<path class="st3" d="M408.3,603.6c-0.3,0-0.5-0.1-0.7-0.3s-0.3-0.4-0.3-0.7s0.1-0.5,0.3-0.7c0.2-0.2,0.4-0.3,0.7-0.3
			c0.3,0,0.5,0.1,0.7,0.3s0.3,0.4,0.3,0.7s-0.1,0.5-0.3,0.7C408.8,603.5,408.6,603.6,408.3,603.6z M409.3,605.7v5.8
			c0,0.4-0.1,0.7-0.3,0.9c-0.2,0.2-0.4,0.3-0.7,0.3c-0.3,0-0.5-0.1-0.7-0.3s-0.3-0.5-0.3-0.9v-5.8c0-0.4,0.1-0.7,0.3-0.9
			c0.2-0.2,0.4-0.3,0.7-0.3c0.3,0,0.5,0.1,0.7,0.3C409.2,605.1,409.3,605.3,409.3,605.7z"/>
		<path class="st3" d="M418.8,606v5.8c0,0.7-0.1,1.2-0.2,1.7s-0.4,0.9-0.7,1.2s-0.7,0.5-1.2,0.7s-1.1,0.2-1.9,0.2
			c-0.7,0-1.3-0.1-1.9-0.3c-0.5-0.2-1-0.4-1.3-0.8c-0.3-0.3-0.4-0.6-0.4-1c0-0.2,0.1-0.4,0.3-0.6s0.4-0.2,0.6-0.2
			c0.3,0,0.5,0.1,0.8,0.4c0.1,0.1,0.2,0.3,0.3,0.4c0.1,0.1,0.2,0.3,0.4,0.3c0.1,0.1,0.3,0.2,0.5,0.2s0.4,0.1,0.7,0.1
			c0.5,0,0.9-0.1,1.2-0.2c0.3-0.1,0.5-0.3,0.6-0.6s0.2-0.5,0.2-0.8s0-0.8,0-1.4c-0.3,0.4-0.7,0.8-1.1,1s-0.9,0.3-1.4,0.3
			c-0.7,0-1.3-0.2-1.8-0.5s-0.9-0.8-1.2-1.4c-0.3-0.6-0.4-1.3-0.4-2.1c0-0.6,0.1-1.2,0.3-1.6c0.2-0.5,0.4-0.9,0.7-1.2
			c0.3-0.3,0.7-0.6,1-0.8c0.4-0.2,0.8-0.3,1.3-0.3c0.6,0,1.1,0.1,1.5,0.3s0.8,0.6,1.2,1v-0.3c0-0.3,0.1-0.6,0.3-0.8
			c0.2-0.2,0.4-0.3,0.7-0.3c0.4,0,0.7,0.1,0.8,0.4C418.7,605.2,418.8,605.6,418.8,606z M412.9,608.6c0,0.8,0.2,1.4,0.5,1.8
			c0.4,0.4,0.8,0.6,1.4,0.6c0.3,0,0.7-0.1,1-0.3s0.5-0.5,0.7-0.8s0.3-0.8,0.3-1.3c0-0.8-0.2-1.5-0.5-1.9c-0.4-0.5-0.8-0.7-1.4-0.7
			s-1,0.2-1.4,0.7S412.9,607.8,412.9,608.6z"/>
		<path class="st3" d="M422.6,605.7v0.3c0.3-0.5,0.7-0.8,1.2-1c0.4-0.2,0.9-0.3,1.5-0.3c0.5,0,1,0.1,1.4,0.3s0.7,0.6,0.9,1
			c0.1,0.3,0.2,0.5,0.3,0.8c0,0.3,0.1,0.7,0.1,1.1v3.7c0,0.4-0.1,0.7-0.3,0.9c-0.2,0.2-0.4,0.3-0.7,0.3s-0.5-0.1-0.7-0.3
			s-0.3-0.5-0.3-0.9v-3.5c0-0.7-0.1-1.2-0.3-1.5c-0.2-0.3-0.5-0.5-1.1-0.5c-0.4,0-0.7,0.1-1,0.3s-0.5,0.5-0.7,0.9
			c-0.1,0.3-0.2,0.9-0.2,1.7v2.5c0,0.4-0.1,0.7-0.3,0.9c-0.2,0.2-0.4,0.3-0.7,0.3c-0.3,0-0.5-0.1-0.7-0.3s-0.3-0.5-0.3-0.9v-5.8
			c0-0.4,0.1-0.7,0.3-0.9s0.4-0.3,0.7-0.3c0.2,0,0.3,0,0.5,0.1c0.1,0.1,0.3,0.2,0.3,0.4C422.6,605.2,422.6,605.4,422.6,605.7z"/>
		<path class="st3" d="M435.5,609.1h-3.9c0,0.5,0.1,0.9,0.3,1.2c0.2,0.3,0.4,0.6,0.7,0.8c0.3,0.2,0.6,0.3,1,0.3c0.2,0,0.5,0,0.7-0.1
			c0.2,0,0.4-0.2,0.6-0.3s0.4-0.3,0.5-0.4c0.2-0.1,0.4-0.3,0.6-0.6c0.1-0.1,0.3-0.1,0.4-0.1c0.2,0,0.4,0.1,0.5,0.2
			c0.1,0.1,0.2,0.3,0.2,0.5s-0.1,0.4-0.2,0.6c-0.1,0.2-0.4,0.5-0.6,0.7c-0.3,0.2-0.7,0.4-1.1,0.6c-0.4,0.1-0.9,0.2-1.5,0.2
			c-1.3,0-2.3-0.4-3-1.1c-0.7-0.7-1.1-1.7-1.1-3c0-0.6,0.1-1.2,0.3-1.7c0.2-0.5,0.4-0.9,0.8-1.3c0.3-0.4,0.8-0.6,1.3-0.8
			s1-0.3,1.7-0.3c0.8,0,1.5,0.2,2,0.5c0.6,0.3,1,0.8,1.3,1.3s0.4,1.1,0.4,1.6s-0.2,0.8-0.4,1C436.4,609.1,436,609.1,435.5,609.1z
			 M431.6,608h3.6c0-0.7-0.2-1.2-0.6-1.5c-0.3-0.3-0.7-0.5-1.3-0.5c-0.5,0-0.9,0.2-1.2,0.5S431.6,607.3,431.6,608z"/>
		<path class="st3" d="M444.3,611.6v-0.2c-0.3,0.3-0.5,0.6-0.8,0.8s-0.5,0.3-0.8,0.4c-0.3,0.1-0.6,0.2-1,0.2c-0.5,0-0.9-0.1-1.3-0.3
			s-0.8-0.5-1.1-0.9c-0.3-0.4-0.5-0.8-0.7-1.3s-0.2-1.1-0.2-1.7c0-1.3,0.3-2.2,0.9-2.9s1.4-1,2.4-1c0.6,0,1.1,0.1,1.5,0.3
			s0.8,0.5,1.2,0.9v-3c0-0.4,0.1-0.7,0.3-0.9c0.2-0.2,0.4-0.3,0.7-0.3s0.5,0.1,0.7,0.3s0.3,0.5,0.3,0.9v8.9c0,0.4-0.1,0.7-0.3,0.9
			s-0.4,0.3-0.7,0.3c-0.3,0-0.5-0.1-0.7-0.3C444.5,612.2,444.3,611.9,444.3,611.6z M440.4,608.6c0,0.5,0.1,1,0.3,1.4
			c0.2,0.4,0.4,0.7,0.7,0.9c0.3,0.2,0.6,0.3,1,0.3c0.3,0,0.7-0.1,1-0.3s0.5-0.5,0.7-0.8c0.2-0.4,0.3-0.8,0.3-1.4
			c0-0.5-0.1-1-0.3-1.4c-0.2-0.4-0.4-0.7-0.7-0.9c-0.3-0.2-0.6-0.3-1-0.3s-0.7,0.1-1,0.3s-0.5,0.5-0.7,0.9
			C440.5,607.7,440.4,608.1,440.4,608.6z"/>
		<path class="st3" d="M453.9,602.7v3.1c0.4-0.4,0.8-0.7,1.2-0.9c0.4-0.2,0.9-0.3,1.5-0.3c0.7,0,1.3,0.2,1.8,0.5s0.9,0.8,1.2,1.4
			c0.3,0.6,0.4,1.3,0.4,2.1c0,0.6-0.1,1.2-0.2,1.7c-0.2,0.5-0.4,1-0.7,1.3s-0.7,0.7-1.1,0.9s-0.9,0.3-1.4,0.3c-0.3,0-0.6,0-0.9-0.1
			s-0.5-0.2-0.7-0.3s-0.3-0.2-0.5-0.4c-0.1-0.1-0.3-0.3-0.5-0.6v0.2c0,0.4-0.1,0.7-0.3,0.9c-0.2,0.2-0.4,0.3-0.7,0.3
			s-0.5-0.1-0.7-0.3s-0.3-0.5-0.3-0.9v-8.8c0-0.4,0.1-0.7,0.3-0.9c0.2-0.2,0.4-0.3,0.7-0.3c0.3,0,0.5,0.1,0.7,0.3
			C453.8,602.1,453.9,602.4,453.9,602.7z M454,608.7c0,0.8,0.2,1.4,0.5,1.8c0.4,0.4,0.8,0.7,1.4,0.7c0.5,0,0.9-0.2,1.3-0.7
			s0.5-1.1,0.5-1.9c0-0.5-0.1-1-0.2-1.4c-0.2-0.4-0.4-0.7-0.7-0.9s-0.6-0.3-1-0.3s-0.7,0.1-1,0.3s-0.5,0.5-0.7,0.9
			C454.1,607.7,454,608.1,454,608.7z"/>
		<path class="st3" d="M463.1,613l0.2-0.5l-2.5-6.2c-0.2-0.4-0.2-0.6-0.2-0.8s0-0.3,0.1-0.5s0.2-0.3,0.4-0.3
			c0.2-0.1,0.3-0.1,0.5-0.1c0.3,0,0.5,0.1,0.7,0.3s0.3,0.5,0.4,0.8l1.7,5l1.6-4.6c0.1-0.4,0.2-0.7,0.3-0.9c0.1-0.2,0.2-0.3,0.3-0.4
			c0.1-0.1,0.3-0.1,0.5-0.1s0.3,0,0.4,0.1s0.3,0.2,0.3,0.3c0.1,0.1,0.1,0.3,0.1,0.4c0,0.1,0,0.2-0.1,0.4c0,0.2-0.1,0.3-0.2,0.5
			l-2.6,6.9c-0.2,0.6-0.5,1.1-0.7,1.4c-0.2,0.3-0.5,0.6-0.9,0.8s-0.8,0.3-1.4,0.3s-1-0.1-1.3-0.2c-0.3-0.1-0.4-0.4-0.4-0.7
			c0-0.2,0.1-0.4,0.2-0.5s0.3-0.2,0.6-0.2c0.1,0,0.2,0,0.3,0c0.1,0,0.2,0,0.3,0c0.2,0,0.4,0,0.5-0.1s0.3-0.2,0.4-0.4
			C462.8,613.6,463,613.3,463.1,613z"/>
	</g>
	<g class="st8">
		<path class="st3" d="M500.3,604.7h0.5v-0.6c0-0.6,0.1-1.1,0.2-1.5c0.2-0.4,0.4-0.6,0.8-0.8s0.9-0.3,1.6-0.3c1.2,0,1.8,0.3,1.8,0.9
			c0,0.2-0.1,0.3-0.2,0.5c-0.1,0.1-0.3,0.2-0.4,0.2c-0.1,0-0.2,0-0.4,0s-0.3,0-0.5,0c-0.4,0-0.6,0.1-0.7,0.3
			c-0.1,0.2-0.2,0.5-0.2,0.9v0.5h0.5c0.8,0,1.2,0.2,1.2,0.7c0,0.3-0.1,0.5-0.3,0.6s-0.5,0.1-0.8,0.1h-0.5v5.3c0,0.4-0.1,0.7-0.3,0.9
			s-0.4,0.3-0.7,0.3s-0.5-0.1-0.7-0.3s-0.3-0.5-0.3-0.9v-5.3h-0.5c-0.3,0-0.5-0.1-0.7-0.2c-0.2-0.1-0.2-0.3-0.2-0.5
			C499.3,605,499.6,604.7,500.3,604.7z"/>
		<path class="st3" d="M507.5,609.8v1.7c0,0.4-0.1,0.7-0.3,0.9s-0.4,0.3-0.7,0.3s-0.5-0.1-0.7-0.3s-0.3-0.5-0.3-0.9v-5.6
			c0-0.9,0.3-1.4,1-1.4c0.3,0,0.6,0.1,0.7,0.3c0.2,0.2,0.2,0.5,0.2,0.9c0.2-0.4,0.5-0.7,0.7-0.9c0.3-0.2,0.6-0.3,1-0.3
			s0.8,0.1,1.2,0.3s0.6,0.5,0.6,0.8s-0.1,0.5-0.3,0.6s-0.3,0.2-0.5,0.2c-0.1,0-0.3,0-0.5-0.1s-0.5-0.1-0.8-0.1s-0.5,0.1-0.7,0.2
			c-0.2,0.2-0.3,0.4-0.4,0.7c-0.1,0.3-0.2,0.7-0.2,1.1C507.5,608.7,507.5,609.2,507.5,609.8z"/>
		<path class="st3" d="M517.3,609.1h-3.9c0,0.5,0.1,0.9,0.3,1.2s0.4,0.6,0.7,0.8s0.6,0.3,1,0.3c0.2,0,0.5,0,0.7-0.1
			c0.2,0,0.4-0.2,0.6-0.3s0.4-0.3,0.5-0.4c0.2-0.1,0.4-0.3,0.6-0.6c0.1-0.1,0.3-0.1,0.5-0.1s0.4,0.1,0.5,0.2
			c0.1,0.1,0.2,0.3,0.2,0.5s-0.1,0.4-0.2,0.6c-0.1,0.2-0.4,0.5-0.6,0.7c-0.3,0.2-0.7,0.4-1.1,0.6c-0.4,0.1-0.9,0.2-1.5,0.2
			c-1.3,0-2.3-0.4-3-1.1c-0.7-0.7-1.1-1.7-1.1-3c0-0.6,0.1-1.2,0.3-1.7s0.4-0.9,0.8-1.3c0.3-0.4,0.8-0.6,1.3-0.8s1-0.3,1.7-0.3
			c0.8,0,1.5,0.2,2,0.5c0.6,0.3,1,0.8,1.3,1.3s0.4,1.1,0.4,1.6s-0.1,0.8-0.4,1C518.2,609.1,517.8,609.1,517.3,609.1z M513.4,608h3.6
			c0-0.7-0.2-1.2-0.6-1.5c-0.3-0.3-0.8-0.5-1.3-0.5s-0.9,0.2-1.2,0.5C513.6,606.8,513.5,607.3,513.4,608z"/>
		<path class="st3" d="M526.3,609.1h-3.9c0,0.5,0.1,0.9,0.3,1.2s0.4,0.6,0.7,0.8s0.6,0.3,1,0.3c0.2,0,0.5,0,0.7-0.1
			c0.2,0,0.4-0.2,0.6-0.3s0.4-0.3,0.5-0.4c0.2-0.1,0.4-0.3,0.6-0.6c0.1-0.1,0.3-0.1,0.4-0.1c0.2,0,0.4,0.1,0.5,0.2
			c0.1,0.1,0.2,0.3,0.2,0.5s-0.1,0.4-0.2,0.6c-0.1,0.2-0.4,0.5-0.7,0.7s-0.7,0.4-1.1,0.6c-0.4,0.1-0.9,0.2-1.5,0.2
			c-1.3,0-2.3-0.4-3-1.1c-0.7-0.7-1.1-1.7-1.1-3c0-0.6,0.1-1.2,0.3-1.7s0.4-0.9,0.8-1.3c0.3-0.4,0.8-0.6,1.3-0.8s1-0.3,1.7-0.3
			c0.8,0,1.5,0.2,2,0.5c0.6,0.3,1,0.8,1.3,1.3s0.4,1.1,0.4,1.6s-0.2,0.8-0.4,1C527.2,609.1,526.8,609.1,526.3,609.1z M522.3,608h3.6
			c0-0.7-0.2-1.2-0.5-1.5s-0.8-0.5-1.3-0.5s-0.9,0.2-1.2,0.5S522.4,607.3,522.3,608z"/>
		<path class="st3" d="M531.3,605.7v0.2c0.4-0.5,0.8-0.8,1.2-1s0.9-0.3,1.4-0.3c0.6,0,1.2,0.2,1.7,0.5s0.9,0.8,1.2,1.4
			c0.3,0.6,0.5,1.3,0.5,2.2c0,0.6-0.1,1.2-0.3,1.7s-0.4,1-0.7,1.3s-0.7,0.6-1.1,0.8c-0.4,0.2-0.9,0.3-1.3,0.3
			c-0.6,0-1.1-0.1-1.5-0.3s-0.8-0.6-1.1-1v3c0,0.9-0.3,1.3-1,1.3c-0.4,0-0.6-0.1-0.8-0.3c-0.1-0.2-0.2-0.6-0.2-1v-8.7
			c0-0.4,0.1-0.7,0.3-0.9s0.4-0.3,0.7-0.3s0.5,0.1,0.7,0.3C531.2,605,531.3,605.3,531.3,605.7z M535.2,608.6c0-0.5-0.1-1-0.2-1.4
			s-0.4-0.7-0.7-0.9s-0.6-0.3-1-0.3c-0.5,0-1,0.2-1.4,0.7c-0.4,0.4-0.6,1.1-0.6,1.9c0,0.8,0.2,1.4,0.6,1.9c0.4,0.4,0.8,0.7,1.4,0.7
			c0.3,0,0.6-0.1,0.9-0.3c0.3-0.2,0.5-0.5,0.7-0.9C535.1,609.6,535.2,609.2,535.2,608.6z"/>
		<path class="st3" d="M539.8,603.6c-0.3,0-0.5-0.1-0.7-0.3s-0.3-0.4-0.3-0.7s0.1-0.5,0.3-0.7s0.4-0.3,0.7-0.3s0.5,0.1,0.7,0.3
			s0.3,0.4,0.3,0.7s-0.1,0.5-0.3,0.7C540.4,603.5,540.1,603.6,539.8,603.6z M540.8,605.7v5.8c0,0.4-0.1,0.7-0.3,0.9
			s-0.4,0.3-0.7,0.3s-0.5-0.1-0.7-0.3s-0.3-0.5-0.3-0.9v-5.8c0-0.4,0.1-0.7,0.3-0.9s0.4-0.3,0.7-0.3s0.5,0.1,0.7,0.3
			C540.8,605.1,540.8,605.3,540.8,605.7z"/>
		<path class="st3" d="M547.9,611.8l-1.8-2.9l-1.1,1v1.6c0,0.4-0.1,0.7-0.3,0.9s-0.4,0.3-0.7,0.3s-0.5-0.1-0.7-0.3s-0.3-0.5-0.3-0.9
			v-8.6c0-0.5,0.1-0.8,0.3-1s0.4-0.3,0.7-0.3s0.5,0.1,0.7,0.3s0.3,0.5,0.3,0.9v4.9l2.3-2.4c0.3-0.3,0.5-0.5,0.6-0.6s0.3-0.2,0.5-0.2
			c0.3,0,0.5,0.1,0.6,0.2c0.2,0.2,0.3,0.4,0.3,0.6c0,0.3-0.3,0.7-0.8,1.2l-1.1,1l2.1,3.2c0.2,0.2,0.3,0.4,0.3,0.5s0.1,0.3,0.1,0.4
			c0,0.3-0.1,0.6-0.3,0.8s-0.4,0.3-0.7,0.3s-0.4-0.1-0.6-0.2C548.3,612.4,548.2,612.2,547.9,611.8z"/>
		<path class="st3" d="M552.9,612.7c-0.3,0-0.6-0.1-0.8-0.3s-0.3-0.5-0.3-0.8s0.1-0.6,0.3-0.8s0.5-0.3,0.8-0.3s0.6,0.1,0.8,0.3
			s0.3,0.5,0.3,0.8s-0.1,0.6-0.3,0.8S553.2,612.7,552.9,612.7z"/>
		<path class="st3" d="M563.5,610.2c0,0.3-0.1,0.5-0.2,0.8c-0.2,0.3-0.4,0.6-0.7,0.8c-0.3,0.3-0.7,0.5-1.2,0.6
			c-0.5,0.2-1,0.2-1.6,0.2c-1.2,0-2.2-0.4-2.9-1.1c-0.7-0.7-1-1.7-1-2.9c0-0.8,0.2-1.6,0.5-2.2s0.8-1.1,1.4-1.5
			c0.6-0.3,1.3-0.5,2.2-0.5c0.5,0,1,0.1,1.4,0.2c0.4,0.2,0.8,0.3,1.1,0.6c0.3,0.2,0.5,0.5,0.7,0.8s0.2,0.5,0.2,0.8
			c0,0.2-0.1,0.5-0.3,0.6c-0.2,0.2-0.4,0.3-0.7,0.3c-0.2,0-0.3,0-0.4-0.1c-0.1-0.1-0.2-0.2-0.4-0.4c-0.3-0.4-0.5-0.7-0.8-0.8
			c-0.3-0.2-0.6-0.3-1-0.3c-0.6,0-1.1,0.2-1.4,0.7s-0.5,1.1-0.5,1.9c0,0.4,0,0.7,0.1,1s0.2,0.6,0.4,0.8s0.4,0.4,0.6,0.5
			s0.5,0.2,0.8,0.2c0.4,0,0.8-0.1,1-0.3c0.3-0.2,0.5-0.5,0.8-0.9c0.1-0.2,0.3-0.4,0.4-0.5c0.1-0.1,0.3-0.2,0.5-0.2
			c0.3,0,0.5,0.1,0.6,0.3C563.4,609.8,563.5,610,563.5,610.2z"/>
		<path class="st3" d="M572.8,608.6c0,0.6-0.1,1.2-0.3,1.7s-0.5,0.9-0.8,1.3s-0.8,0.6-1.3,0.8s-1,0.3-1.7,0.3
			c-0.6,0-1.2-0.1-1.6-0.3c-0.5-0.2-0.9-0.5-1.3-0.8c-0.3-0.4-0.6-0.8-0.8-1.3s-0.3-1-0.3-1.7c0-0.6,0.1-1.2,0.3-1.7
			s0.5-0.9,0.8-1.3s0.8-0.6,1.3-0.8s1-0.3,1.6-0.3s1.2,0.1,1.7,0.3s0.9,0.5,1.3,0.8c0.3,0.4,0.6,0.8,0.8,1.3
			C572.7,607.5,572.8,608,572.8,608.6z M570.7,608.6c0-0.8-0.2-1.5-0.5-1.9c-0.4-0.5-0.8-0.7-1.5-0.7c-0.4,0-0.7,0.1-1,0.3
			s-0.5,0.5-0.7,0.9s-0.2,0.9-0.2,1.4s0.1,1,0.2,1.4c0.2,0.4,0.4,0.7,0.7,0.9s0.7,0.3,1,0.3c0.6,0,1.1-0.2,1.5-0.7
			C570.6,610.1,570.7,609.4,570.7,608.6z"/>
		<path class="st3" d="M581,608.8v2.7c0,0.4-0.1,0.7-0.3,1s-0.5,0.3-0.8,0.3s-0.5-0.1-0.7-0.3s-0.3-0.5-0.3-1v-3.2
			c0-0.5,0-0.9,0-1.2s-0.1-0.5-0.3-0.7s-0.4-0.3-0.7-0.3c-0.7,0-1.1,0.2-1.3,0.7s-0.3,1.1-0.3,1.9v2.7c0,0.4-0.1,0.7-0.3,1
			c-0.2,0.2-0.4,0.3-0.8,0.3c-0.3,0-0.5-0.1-0.8-0.3c-0.2-0.2-0.3-0.5-0.3-1v-5.8c0-0.4,0.1-0.7,0.3-0.9s0.4-0.3,0.7-0.3
			s0.5,0.1,0.7,0.3s0.3,0.4,0.3,0.8v0.2c0.3-0.4,0.7-0.7,1.1-0.9c0.4-0.2,0.8-0.3,1.3-0.3s0.9,0.1,1.3,0.3s0.7,0.5,0.9,0.9
			c0.3-0.4,0.7-0.7,1.1-0.9s0.8-0.3,1.3-0.3s1,0.1,1.4,0.3s0.7,0.5,0.9,0.9s0.3,0.9,0.3,1.7v3.9c0,0.4-0.1,0.7-0.3,1
			s-0.4,0.3-0.8,0.3c-0.3,0-0.5-0.1-0.8-0.3s-0.3-0.5-0.3-1v-3.2c0-0.4,0-0.8,0-1c0-0.3-0.1-0.5-0.3-0.7s-0.4-0.3-0.7-0.3
			s-0.5,0.1-0.8,0.2c-0.2,0.2-0.4,0.4-0.6,0.6C581.1,607.3,581,607.9,581,608.8z"/>
	</g>
	<g class="st8">
		<path class="st3" d="M484.5,599.4c0-0.1-0.1-0.3-0.1-0.4c0.7-0.1,1.1-0.9,0.8-1.5c-0.3-0.7-1.3-0.8-1.7-0.1
			c-0.4,0.5-0.1,1.4,0.6,1.6c0,0.1,0.1,0.3,0.1,0.4c-1,0.1-2,0.3-2.9,0.9c0.1,0.2,0.2,0.5,0.3,0.7c1.7-0.8,3.6-0.6,5.4-0.4
			c0.1-0.2,0.1-0.5,0.2-0.7C486.3,599.5,485.3,599.4,484.5,599.4z"/>
		<path class="st3" d="M494.7,602.1c-0.3,0.1-0.3,0.5-0.3,0.7c-0.3,0.3-0.2,0.7-0.2,1.1c-0.1,0.2-0.3,0.2-0.5,0.3
			c-0.2-0.4-0.5-0.7-0.8-1l0,0c-0.3-0.3-0.7-0.6-1.1-0.9c-0.3,0.3-0.7,0.7-1,1c0.6,0.7,1.2,1.4,1.7,2.1c0.3,0.6,0.6,1.2,0.8,1.8
			c0.5-0.3,1-0.5,1.5-0.8c-0.3-0.6-0.6-1.2-0.9-1.8c0.2-0.1,0.5-0.2,0.6-0.5c0-0.3,0-0.7,0.2-1c0.4,0.3,1,0,1-0.5
			C495.7,602.2,495,601.9,494.7,602.1z"/>
		<path class="st3" d="M491.9,605.8c-0.7-1.1-1.4-2.2-2.4-3c-1.1-1-2.6-1.7-4.1-1.7c-1.9,0-3.9,0.3-5.6,1.1c-1.7,0.7-3.1,2-3.8,3.7
			c-0.7,1.5-0.7,3.3-0.4,4.9c1.8,0.4,3.6,0.8,5.4,0.9c1.8,0.1,3.6,0.1,5.4-0.2c2.5-0.3,4.9-1.1,7-2.3
			C493.3,609.2,493,607.6,491.9,605.8z M483.2,608c-0.3,0.5-0.8,0.9-1.4,1.1c-1,0.4-2.3,0.1-3-0.7c-0.5-0.6-0.8-1.3-0.8-2.1
			c0-1,0.6-1.9,1.5-2.3c0.7-0.3,1.4-0.4,2.1-0.2c0.3,0.1,0.6,0.2,0.8,0.4c0.5,0.4,0.9,0.9,1.1,1.5
			C483.8,606.4,483.7,607.3,483.2,608z M490.7,606.3c-0.1,0.8-0.9,1.5-1.8,1.5c-0.5,0-1-0.2-1.3-0.5c-0.2-0.3-0.4-0.6-0.5-1
			c-0.1-0.8,0.5-1.7,1.3-1.9c0.4-0.1,0.7,0,1.1,0C490.3,604.6,490.8,605.5,490.7,606.3z"/>
		<path class="st3" d="M476,603.4c-0.7,0.4-1.3,1-1.8,1.7c-0.1-0.3-0.2-0.6-0.4-0.8c-0.1-0.1-0.3-0.1-0.5-0.1s-0.4,0-0.5-0.1
			c0.2-0.3,0.2-0.8-0.2-0.9c-0.3-0.3-0.9,0-1,0.4c-0.1,0.5,0.3,0.9,0.8,0.8c0.2,0.3,0.7,0.3,1,0.3c0.2,0.3,0.3,0.6,0.5,0.8
			c-0.4,0.8-0.6,1.6-0.6,2.5c0.5,0.2,1,0.4,1.5,0.6c0-0.5,0.1-1.1,0.2-1.6c0.2-1.2,0.8-2.2,1.6-3C476.4,603.8,476.2,603.6,476,603.4
			z"/>
		<path class="st3" d="M487.5,612.1c-1.8,0.4-3.7,0.5-5.6,0.4c-1.3-0.1-2.5-0.2-3.7-0.5c-0.9-0.2-1.7-0.4-2.6-0.7
			c0.1,1.1,0.6,2.1,1.2,3c0.8,1,1.7,2,3,2.4c1,0.3,2.1,0.6,4.1,0.6c1.7,0,3.3-0.2,4.7-0.8c0.9-0.4,1.8-0.9,2.5-1.6
			c0.7-0.6,1.2-1.4,1.5-2.2s0.6-2.2,0.6-2.9C491.5,610.9,489.5,611.7,487.5,612.1z"/>
	</g>
</g>
</svg>
