<?xml version="1.0" encoding="utf-8"?>
<!-- Generator: Adobe Illustrator 23.0.3, SVG Export Plug-In . SVG Version: 6.00 Build 0)  -->
<svg version="1.1" id="Layer_1" xmlns="http://www.w3.org/2000/svg" xmlns:xlink="http://www.w3.org/1999/xlink" x="0px" y="0px"
	 viewBox="0 0 50 50" style="enable-background:new 0 0 50 50;" xml:space="preserve">
<style type="text/css">
	.st0{fill:#C6C6C6;}
	.st1{fill:#898888;}
</style>
<g>
	<ellipse class="st0" cx="25" cy="27" rx="19.6" ry="17.6"/>
	<path d="M25,9.8c10.6,0,19.3,7.8,19.3,17.3S35.6,44.3,25,44.3S5.8,36.6,5.8,27S14.4,9.8,25,9.8 M25,9.1c-11.1,0-20,8-20,18
		s8.9,18,20,18s20-8,20-18S36,9.1,25,9.1L25,9.1z"/>
</g>
<g>
	<polygon class="st1" points="4.9,14.9 25,0.9 45.1,14.9 	"/>
	<path d="M25,1.6l18.4,12.8H6.6L25,1.6 M25,0.3L3.2,15.4h43.5L25,0.3L25,0.3z"/>
</g>
</svg>
