<?xml version="1.0" encoding="utf-8"?>
<!-- Generator: Adobe Illustrator 22.1.0, SVG Export Plug-In . SVG Version: 6.00 Build 0)  -->
<svg version="1.1" id="Layer_1" xmlns="http://www.w3.org/2000/svg" xmlns:xlink="http://www.w3.org/1999/xlink" x="0px" y="0px"
	 viewBox="0 0 85 85" style="enable-background:new 0 0 85 85;" xml:space="preserve">
<style type="text/css">
	.st0{fill:#E9ECF0;}
</style>
<g>
	<path class="st0" d="M44,15.5c-14.9,0-27,12.1-27,27V44L9.1,36l-2.1,2.1l11.6,11.6l11.6-11.6L27.9,36L20,44v-1.5
		c0-13.2,10.8-24,24-24s24,10.8,24,24c0,2.2-0.3,4.4-0.9,6.6l2.9,0.8c0.7-2.4,1-4.9,1-7.4C71,27.6,58.9,15.5,44,15.5z"/>
	<path class="st0" d="M44,66.5v3c3.2,0,6.3-0.6,9.3-1.7l-1-2.8C49.6,66,46.9,66.5,44,66.5z"/>
	<path class="st0" d="M59.6,60.8l1.9,2.3c2.4-2.1,4.5-4.5,6-7.3l-2.6-1.5C63.5,56.7,61.7,58.9,59.6,60.8z"/>
</g>
</svg>
