<?xml version="1.0" encoding="utf-8"?>
<!-- Generator: Adobe Illustrator 22.1.0, SVG Export Plug-In . SVG Version: 6.00 Build 0)  -->
<svg version="1.1" id="Layer_1" xmlns="http://www.w3.org/2000/svg" xmlns:xlink="http://www.w3.org/1999/xlink" x="0px" y="0px"
	 viewBox="0 0 85 85" style="enable-background:new 0 0 85 85;" xml:space="preserve">
<style type="text/css">
	.st0{fill:#E9ECF0;}
</style>
<g>
	<path class="st0" d="M26.6,60.5l-1-1c-4.5-4.5-7-10.6-7-17c0-6.4,2.5-12.4,7-17c0.2-0.2,0.3-0.3,0.5-0.5L24,22.9
		c-0.2,0.2-0.4,0.4-0.6,0.5c-5.1,5.1-7.9,11.9-7.9,19.1s2.8,14,7.9,19.1l1,1H13.2v3h16.3V49.3h-3V60.5z"/>
	<path class="st0" d="M71.5,19.1H55.2v16.3h3V24.3l1.3,1.3c9.4,9.4,9.4,24.6,0,33.9c-0.2,0.2-0.3,0.3-0.5,0.5l2.1,2.2
		c0.2-0.2,0.4-0.4,0.6-0.5c10.5-10.5,10.5-27.7,0-38.2l-1.3-1.3h11.2V19.1z"/>
	<path class="st0" d="M31.9,17.7l1.2,2.8c2.6-1.1,5.4-1.7,8.2-1.9l-0.2-3C37.9,15.7,34.8,16.4,31.9,17.7z"/>
	<path class="st0" d="M43.7,66.5l0.2,3c3.2-0.2,6.3-0.9,9.2-2.1l-1.2-2.8C49.3,65.7,46.6,66.3,43.7,66.5z"/>
</g>
</svg>
