<?xml version="1.0" encoding="utf-8"?>
<!-- Generator: Adobe Illustrator 22.1.0, SVG Export Plug-In . SVG Version: 6.00 Build 0)  -->
<svg version="1.1" id="Layer_1" xmlns="http://www.w3.org/2000/svg" xmlns:xlink="http://www.w3.org/1999/xlink" x="0px" y="0px"
	 viewBox="0 0 85 85" style="enable-background:new 0 0 85 85;" xml:space="preserve">
<style type="text/css">
	.st0{fill:#E9ECF0;}
</style>
<path class="st0" d="M63.5,15h-42c-3.3,0-6,2.7-6,6v27v15c0,3.3,2.7,6,6,6h15h27c3.3,0,6-2.7,6-6V21C69.5,17.7,66.8,15,63.5,15z
	 M21.5,18h42c0.3,0,0.5,0,0.8,0.1L43.5,38.9v-8.4h-3v13c-1.1-1-2.5-1.5-4-1.5h-15c-1.1,0-2.1,0.3-3,0.8V21
	C18.5,19.3,19.8,18,21.5,18z M21.5,66c-0.4,0-0.8-0.1-1.2-0.2c-0.2-0.1-0.3-0.2-0.5-0.3c-0.3-0.2-0.6-0.5-0.8-0.8
	c-0.3-0.5-0.5-1.1-0.5-1.7V48c0-1.7,1.3-3,3-3h15c1.7,0,3,1.3,3,3v15c0,1.7-1.3,3-3,3H21.5z M66.5,63c0,1.7-1.3,3-3,3H41.7
	c0.5-0.9,0.8-1.9,0.8-3V48c0-1.5-0.6-2.9-1.5-4h13v-3h-8.4l20.8-20.8c0.1,0.2,0.1,0.5,0.1,0.8V63z"/>
</svg>
