<?xml version="1.0" encoding="utf-8"?>
<!-- Generator: Adobe Illustrator 22.1.0, SVG Export Plug-In . SVG Version: 6.00 Build 0)  -->
<svg version="1.1" id="Layer_1" xmlns="http://www.w3.org/2000/svg" xmlns:xlink="http://www.w3.org/1999/xlink" x="0px" y="0px"
	 viewBox="0 0 85 85" style="enable-background:new 0 0 85 85;" xml:space="preserve">
<style type="text/css">
	.st0{fill:#E9ECF0;}
</style>
<circle class="st0" cx="42.5" cy="25" r="4.5"/>
<path class="st0" d="M44,66.5v-4.8c1.6-3.1,14-27.6,14-35.2C58,18,51,11,42.5,11S27,18,27,26.5c0,7.6,12.3,31.9,14,35.2v4.8
	c0,0.2,0,0.3,0.1,0.5h-4.6v3h12v-3h-4.6C44,66.8,44,66.7,44,66.5z M36.4,45.2c-0.9-2.1-1.8-4.1-2.6-6.1h17.4
	c-0.9,2.1-1.8,4.3-2.8,6.5v-0.5h-12V45.2z M47.3,48.1c-1.7,3.7-3.4,7.2-4.8,10c-1.4-2.7-3.1-6.2-4.8-10H47.3z M42.5,14
	C49.4,14,55,19.6,55,26.5c0,2-1.1,5.5-2.6,9.6H32.6C31.1,32,30,28.5,30,26.5C30,19.6,35.6,14,42.5,14z"/>
<rect x="17" y="67" class="st0" width="12" height="3"/>
<rect x="56" y="67" class="st0" width="12" height="3"/>
</svg>
