<?xml version="1.0" encoding="utf-8"?>
<!-- Generator: Adobe Illustrator 22.1.0, SVG Export Plug-In . SVG Version: 6.00 Build 0)  -->
<svg version="1.1" id="Layer_1" xmlns="http://www.w3.org/2000/svg" xmlns:xlink="http://www.w3.org/1999/xlink" x="0px" y="0px"
	 viewBox="0 0 85 85" style="enable-background:new 0 0 85 85;" xml:space="preserve">
<style type="text/css">
	.st0{fill:#E9ECF0;}
</style>
<path class="st0" d="M69.9,44.5c-3.5-3.5-9.2-3.5-12.7,0l-22,21.9c-2.3,2.3-6.1,2.3-8.5,0c-1.1-1.1-1.7-2.6-1.7-4.2
	c0-1.6,0.6-3.1,1.7-4.2l30.5-30.3c1.7-1.7,2.6-3.9,2.6-6.3c0-2.4-0.9-4.6-2.6-6.3c-3.5-3.5-9.2-3.5-12.7,0L28.8,30.7
	c-2.3,2.3-6.1,2.3-8.5,0l-4.6-4.6h8.4v-3H10.6v13.5h3v-8.4l4.6,4.6c3.5,3.5,9.2,3.5,12.7,0l15.7-15.6c2.3-2.3,6.1-2.3,8.5,0
	c1.1,1.1,1.7,2.6,1.7,4.2c0,1.6-0.6,3.1-1.7,4.2L24.6,55.9c-1.7,1.7-2.6,3.9-2.6,6.3c0,2.4,0.9,4.6,2.6,6.3c3.5,3.5,9.2,3.5,12.7,0
	l22-21.9c2.3-2.3,6.1-2.3,8.5,0c1.1,1.1,1.7,2.6,1.7,4.2c0,1.6-0.6,3.1-1.7,4.2l-15,14.9l2.1,2.1l15-14.9c1.7-1.7,2.6-3.9,2.6-6.3
	C72.5,48.5,71.6,46.2,69.9,44.5z"/>
</svg>
