<?xml version="1.0" encoding="utf-8"?>
<!-- Generator: Adobe Illustrator 22.1.0, SVG Export Plug-In . SVG Version: 6.00 Build 0)  -->
<svg version="1.1" id="Layer_1" xmlns="http://www.w3.org/2000/svg" xmlns:xlink="http://www.w3.org/1999/xlink" x="0px" y="0px"
	 viewBox="0 0 85 85" style="enable-background:new 0 0 85 85;" xml:space="preserve">
<style type="text/css">
	.st0{fill:#E9ECF0;}
</style>
<path class="st0" d="M68,14H56c-1.7,0-3,1.3-3,3v12c0,0.3,0,0.5,0.1,0.8L29.8,53.1C29.5,53,29.3,53,29,53H17c-1.7,0-3,1.3-3,3v12
	c0,1.7,1.3,3,3,3h12c1.7,0,3-1.3,3-3V56c0-0.3,0-0.5-0.1-0.8l23.3-23.3C55.5,32,55.7,32,56,32h12c1.7,0,3-1.3,3-3V17
	C71,15.3,69.7,14,68,14z M29,68H17V56h12V68z M68,29H56V17h12V29z"/>
</svg>
