<?xml version="1.0" encoding="utf-8"?>
<!-- Generator: Adobe Illustrator 22.1.0, SVG Export Plug-In . SVG Version: 6.00 Build 0)  -->
<svg version="1.1" id="Layer_1" xmlns="http://www.w3.org/2000/svg" xmlns:xlink="http://www.w3.org/1999/xlink" x="0px" y="0px"
	 viewBox="0 0 85 85" style="enable-background:new 0 0 85 85;" xml:space="preserve">
<style type="text/css">
	.st0{fill:#E9ECF0;}
</style>
<path class="st0" d="M63.5,18.5c1.7,0,3,1.3,3,3v42c0,1.7-1.3,3-3,3h-42c-1.7,0-3-1.3-3-3v-42c0-1.7,1.3-3,3-3H63.5 M63.5,15.5h-42
	c-3.3,0-6,2.7-6,6v42c0,3.3,2.7,6,6,6h42c3.3,0,6-2.7,6-6v-42C69.5,18.2,66.8,15.5,63.5,15.5L63.5,15.5z"/>
</svg>
