<?xml version="1.0" encoding="utf-8"?>
<!-- Generator: Adobe Illustrator 22.1.0, SVG Export Plug-In . SVG Version: 6.00 Build 0)  -->
<svg version="1.1" id="Layer_1" xmlns="http://www.w3.org/2000/svg" xmlns:xlink="http://www.w3.org/1999/xlink" x="0px" y="0px"
	 viewBox="0 0 85 85" style="enable-background:new 0 0 85 85;" xml:space="preserve">
<style type="text/css">
	.st0{fill:#E9ECF0;}
</style>
<g>
	<path class="st0" d="M66.5,12.5H32c-3.3,0-6,2.7-6,6v7.6h-7.5c-3.3,0-6,2.7-6,6v6.2h3v-6.2c0-1.7,1.3-3,3-3H29V18.5
		c0-1.7,1.3-3,3-3h34.5c1.7,0,3,1.3,3,3V53c0,1.7-1.3,3-3,3H56v10.6c0,1.7-1.3,3-3,3h-6.2v3H53c3.3,0,6-2.7,6-6V59h7.5
		c3.3,0,6-2.7,6-6V18.5C72.5,15.2,69.8,12.5,66.5,12.5z"/>
	<rect x="12.5" y="44.3" class="st0" width="3" height="7"/>
	<path class="st0" d="M59,32.1c0-3.3-2.7-6-6-6h-6.2v3H53c1.7,0,3,1.3,3,3v6.2h3V32.1z"/>
	<rect x="33.8" y="69.6" class="st0" width="7" height="3"/>
	<path class="st0" d="M15.5,66.6v-9.2h-3v9.2c0,3.3,2.7,6,6,6h9.2v-3h-9.2C16.8,69.6,15.5,68.2,15.5,66.6z"/>
	<rect x="33.8" y="26.1" class="st0" width="7" height="3"/>
	<rect x="56" y="44.3" class="st0" width="3" height="7"/>
</g>
</svg>
